<?xml version="1.0" standalone="no"?>
<!DOCTYPE svg PUBLIC "-//W3C//DTD SVG 1.1//EN" "http://www.w3.org/Graphics/SVG/1.1/DTD/svg11.dtd" >
<svg>
<metadata>
Created by FontForge 20090622 at Thu Nov 29 19:22:53 2018
 By deploy user
Copyright (c) 2015 by Mariya Pigoulevskaya. All rights reserved.
</metadata>
<defs>
<font id="Stolzl-Book" horiz-adv-x="0" >
  <font-face 
    font-family="Stolzl Book"
    font-weight="400"
    font-stretch="normal"
    units-per-em="1000"
    panose-1="0 0 5 0 0 0 0 0 0 0"
    ascent="800"
    descent="-200"
    x-height="550"
    cap-height="700"
    bbox="-547 -262 1402 1045"
    underline-thickness="50"
    underline-position="-50"
    unicode-range="U+0020-U+25CA"
  />
<missing-glyph horiz-adv-x="510" 
d="M418 770v-1020h-323v1020h323zM340 702h-169v-34h67v-38h-68v-33h170v33h-68v38h68v34zM272 570h-102v-106h170v35h-68v71zM238 535v-36h-34v36h34zM340 436h-170v-33h68v-38h-68v-34h102v72h68v33zM340 375h-34v-67h-136v-35h170v102zM340 251h-102v-57h34v23h34v-48
h-102v82h-34v-115h170v115zM340 74h-170v-115h170v115zM306 41v-48h-102v48h102zM340 -64h-170v-34h72l-72 -48v-34h170v34h-104l71 48h33v34z" />
    <glyph glyph-name=".notdef" horiz-adv-x="510" 
d="M418 770v-1020h-323v1020h323zM340 702h-169v-34h67v-38h-68v-33h170v33h-68v38h68v34zM272 570h-102v-106h170v35h-68v71zM238 535v-36h-34v36h34zM340 436h-170v-33h68v-38h-68v-34h102v72h68v33zM340 375h-34v-67h-136v-35h170v102zM340 251h-102v-57h34v23h34v-48
h-102v82h-34v-115h170v115zM340 74h-170v-115h170v115zM306 41v-48h-102v48h102zM340 -64h-170v-34h72l-72 -48v-34h170v34h-104l71 48h33v34z" />
    <glyph glyph-name=".null" 
 />
    <glyph glyph-name="nonmarkingreturn" horiz-adv-x="333" 
 />
    <glyph glyph-name="space" unicode=" " horiz-adv-x="300" 
 />
    <glyph glyph-name="exclam" unicode="!" horiz-adv-x="292" 
d="M188 700v-272l-6 -222h-72l-6 222v272h84zM146 101q25 0 41.5 -15.5t16.5 -40.5q0 -24 -16.5 -40t-41.5 -16t-41.5 16t-16.5 40q0 25 16.5 40.5t41.5 15.5z" />
    <glyph glyph-name="quotedbl" unicode="&#x22;" horiz-adv-x="432" 
d="M98 377l-10 198v125h83v-125l-10 -198h-63zM271 377l-10 198v125h83v-125l-9 -198h-64z" />
    <glyph glyph-name="numbersign" unicode="#" horiz-adv-x="913" 
d="M807 486h-154l-49 -183h155l-18 -69h-155l-62 -234h-77l62 234h-189l-62 -234h-77l61 234h-154l18 69h155l48 183h-155l18 69h155l57 215h77l-57 -215h189l57 215h77l-56 -215h155zM527 303l48 183h-189l-48 -183h189z" />
    <glyph glyph-name="dollar" unicode="$" horiz-adv-x="641" 
d="M597 195q0 -96 -67 -148t-167 -58v-113h-82v117q-104 14 -163 72t-74 145h84q35 -143 211 -143q82 0 128 32.5t46 92.5q0 53 -42 75t-159 48q-63 14 -102.5 27t-76 34.5t-53.5 54t-17 77.5q0 89 63 142t160 60v114h83v-116q92 -11 146.5 -60t71.5 -123h-84
q-42 108 -188 108q-78 0 -123.5 -33t-45.5 -92q0 -43 38.5 -65t146.5 -47q72 -16 113.5 -29t80.5 -35.5t55.5 -55.5t16.5 -81z" />
    <glyph glyph-name="percent" unicode="%" horiz-adv-x="1066" 
d="M270 290q-83 0 -132.5 54.5t-49.5 156.5q0 101 49.5 155.5t132.5 54.5t133 -54.5t50 -155.5q0 -102 -50 -156.5t-133 -54.5zM774 700l-400 -700h-82l400 700h82zM270 357q109 0 109 144t-109 144t-109 -144t109 -144zM795 410q83 0 133 -54.5t50 -156.5
q0 -101 -50 -155.5t-133 -54.5t-132.5 54.5t-49.5 155.5q0 102 49.5 156.5t132.5 54.5zM795 343q-109 0 -109 -144t109 -144t109 144t-109 144z" />
    <glyph glyph-name="ampersand" unicode="&#x26;" horiz-adv-x="696" 
d="M652 0h-106l-61 64q-88 -75 -209 -75q-104 0 -168 49t-64 137q0 63 36.5 104t117.5 90q-47 57 -66 96t-19 78q0 78 54 123t134 45q78 0 127 -43.5t49 -114.5q0 -61 -39 -103.5t-124 -97.5l164 -172q34 57 47 139h84q-14 -116 -73 -199zM197 538q0 -28 14.5 -56t52.5 -73
l3 2q74 49 100 77.5t26 62.5q0 37 -24 60t-68 24q-48 -1 -76 -26t-28 -71zM281 65q88 0 149 55l-181 191q-68 -43 -94.5 -69.5t-26.5 -64.5q0 -51 40 -81.5t113 -30.5z" />
    <glyph glyph-name="quotesingle" unicode="'" horiz-adv-x="259" 
d="M171 700v-125l-10 -198h-63l-10 198v125h83z" />
    <glyph glyph-name="parenleft" unicode="(" horiz-adv-x="398" 
d="M310 744q-75 -142 -107 -251t-32 -233t32 -233t107 -251l-63 -38q-159 254 -159 522t159 522z" />
    <glyph glyph-name="parenright" unicode=")" horiz-adv-x="398" 
d="M88 744l63 38q159 -254 159 -522t-159 -522l-63 38q75 141 106.5 250.5t31.5 233.5t-31.5 233.5t-106.5 250.5z" />
    <glyph glyph-name="asterisk" unicode="*" horiz-adv-x="558" 
d="M470 554l-140 -57l97 -117l-50 -40l-98 119l-98 -119l-50 40l96 118l-139 56l25 59l134 -54v141h63v-141l135 54z" />
    <glyph glyph-name="plus" unicode="+" horiz-adv-x="677" 
d="M380 545v-207h209v-79h-209v-207h-83v207h-209v79h209v207h83z" />
    <glyph glyph-name="comma" unicode="," horiz-adv-x="318" 
d="M230 42q2 -30 -83 -214h-59l66 163q-40 10 -40 53q0 25 16.5 41t41.5 16q22 0 39.5 -14t18.5 -45z" />
    <glyph glyph-name="hyphen" unicode="-" horiz-adv-x="499" 
d="M412 341v-79h-324v79h324z" />
    <glyph glyph-name="period" unicode="." horiz-adv-x="292" 
d="M146 101q25 0 41.5 -16t16.5 -40t-16.5 -40t-41.5 -16t-41.5 16t-16.5 40t16.5 40t41.5 16z" />
    <glyph glyph-name="slash" unicode="/" horiz-adv-x="331" 
d="M309 770l-203 -770h-84l203 770h84z" />
    <glyph glyph-name="zero" unicode="0" horiz-adv-x="680" 
d="M340 711q134 0 208 -94.5t74 -266.5t-74 -266.5t-208 -94.5q-133 0 -207.5 94t-74.5 267t74.5 267t207.5 94zM340 68q93 0 145.5 68.5t52.5 213.5t-52.5 213.5t-145.5 68.5t-145.5 -68.5t-52.5 -213.5t52.5 -213.5t145.5 -68.5z" />
    <glyph glyph-name="one" unicode="1" horiz-adv-x="366" 
d="M240 700h38v-700h-83v603l-161 -65v82z" />
    <glyph glyph-name="two" unicode="2" horiz-adv-x="613" 
d="M569 80v-80h-525v60l203 177q141 123 180.5 168t39.5 96q0 58 -43 94.5t-115 36.5t-116 -38.5t-59 -108.5h-84q15 104 86 165t177 61t171.5 -59t65.5 -148q0 -72 -47.5 -129.5t-187.5 -178.5l-134 -116h388z" />
    <glyph glyph-name="three" unicode="3" horiz-adv-x="612" 
d="M444 369q59 -19 91.5 -64t32.5 -109q0 -95 -69 -151t-181 -56q-108 0 -183.5 54t-90.5 157h84q29 -132 189 -132q78 0 122.5 36t44.5 98q0 56 -37.5 89.5t-118.5 33.5h-97v73h73q157 0 157 108q0 58 -42.5 92t-112.5 34q-66 0 -108 -28.5t-59 -94.5h-84
q19 103 86.5 152.5t166.5 49.5q102 0 169.5 -54.5t67.5 -140.5q0 -51 -26 -90t-75 -57z" />
    <glyph glyph-name="four" unicode="4" horiz-adv-x="629" 
d="M595 246v-78h-103v-168h-83v168h-375v78l334 454h124v-454h103zM126 247l283 -1v376h-8z" />
    <glyph glyph-name="five" unicode="5" horiz-adv-x="615" 
d="M333 462q101 0 169.5 -63t68.5 -167q0 -106 -73 -174.5t-182 -68.5q-105 0 -181 57t-91 161h84q15 -67 66 -103t122 -36q74 0 122.5 47t48.5 117q0 72 -48 116t-122 44q-113 0 -166 -91h-80l85 399h382v-79h-319l-46 -218q64 59 160 59z" />
    <glyph glyph-name="six" unicode="6" horiz-adv-x="611" 
d="M328 471q99 0 169 -62.5t70 -170.5q0 -111 -75 -180t-187 -69q-111 0 -186 68.5t-75 183.5q0 83 49 167t195 278l11 14h97l-199 -266q65 37 131 37zM305 68q77 0 128 47t51 123q0 77 -51 122.5t-127 45.5q-79 0 -128.5 -46t-49.5 -123t50.5 -123t126.5 -46z" />
    <glyph glyph-name="seven" unicode="7" horiz-adv-x="545" 
d="M34 700h477v-63l-314 -637h-94l310 620h-379v80z" />
    <glyph glyph-name="eight" unicode="8" horiz-adv-x="605" 
d="M435 369q60 -20 93 -67t33 -111q0 -93 -73 -147.5t-185 -54.5t-185.5 54.5t-73.5 147.5q0 64 33 111t93 67q-49 18 -75.5 58t-26.5 92q0 86 67 139t168 53q100 0 167.5 -53t67.5 -139q0 -52 -27 -92t-76 -58zM303 633q-68 0 -110 -33t-42 -90q0 -51 37 -80.5t115 -29.5
t115 29.5t37 80.5q0 57 -42 90t-110 33zM303 67q78 0 126.5 34.5t48.5 95.5q0 130 -175 130q-176 0 -176 -130q0 -61 48.5 -95.5t127.5 -34.5z" />
    <glyph glyph-name="nine" unicode="9" horiz-adv-x="611" 
d="M306 711q111 0 186 -68t75 -184q0 -83 -49 -167t-195 -278l-11 -14h-97l199 266q-65 -37 -131 -37q-99 0 -169 62.5t-70 170.5q0 111 75 180t187 69zM305 294q79 0 129 46t50 123t-51 123t-127 46t-127 -47t-51 -123q0 -77 50.5 -122.5t126.5 -45.5z" />
    <glyph glyph-name="colon" unicode=":" horiz-adv-x="292" 
d="M146 503q25 0 41.5 -16t16.5 -40q0 -25 -16.5 -40.5t-41.5 -15.5t-41.5 15.5t-16.5 40.5q0 24 16.5 40t41.5 16zM146 101q25 0 41.5 -16t16.5 -40t-16.5 -40t-41.5 -16t-41.5 16t-16.5 40t16.5 40t41.5 16z" />
    <glyph glyph-name="semicolon" unicode=";" horiz-adv-x="318" 
d="M172 391q-25 0 -41.5 15.5t-16.5 40.5q0 24 16.5 40t41.5 16t41.5 -16t16.5 -40q0 -25 -16.5 -40.5t-41.5 -15.5zM230 42q2 -30 -83 -214h-59l66 163q-40 10 -40 53q0 25 16.5 41t41.5 16q22 0 39.5 -14t18.5 -45z" />
    <glyph glyph-name="less" unicode="&#x3c;" horiz-adv-x="677" 
d="M589 505v-86l-377 -118l377 -118v-88l-501 176v59z" />
    <glyph glyph-name="equal" unicode="=" horiz-adv-x="677" 
d="M589 444v-77h-501v77h501zM589 240v-77h-501v77h501z" />
    <glyph glyph-name="greater" unicode="&#x3e;" horiz-adv-x="677" 
d="M88 505l501 -175v-59l-501 -176v88l376 118l-376 118v86z" />
    <glyph glyph-name="question" unicode="?" horiz-adv-x="573" 
d="M234 206v52q0 48 25.5 73.5t89.5 58.5q52 27 74 50.5t22 66.5q0 58 -41 92.5t-116 34.5q-144 0 -160 -145h-84q9 110 76 166t171 56q106 0 172 -54.5t66 -147.5q0 -67 -33.5 -104t-100.5 -72q-28 -15 -42 -24t-26 -26t-12 -39v-38h-81zM276 -11q-26 0 -42.5 15.5
t-16.5 40.5t16.5 40.5t42.5 15.5t42.5 -15.5t16.5 -40.5t-16.5 -40.5t-42.5 -15.5z" />
    <glyph glyph-name="at" unicode="@" horiz-adv-x="1144" 
d="M582 781q105 0 197 -33.5t160.5 -96t108 -158t39.5 -212.5q0 -139 -53.5 -213t-144.5 -74q-54 0 -97 28.5t-56 88.5q-28 -55 -78.5 -86t-115.5 -31q-101 0 -165.5 71.5t-64.5 183.5t65 183.5t164 71.5q63 0 112.5 -29.5t78.5 -81.5v101h75l-1 -334q0 -47 25 -71t63 -24
q52 0 84.5 49.5t32.5 157.5t-34 193.5t-93.5 138t-135.5 79.5t-165 27q-198 0 -323.5 -124.5t-125.5 -331.5q0 -206 123 -325t317 -119q115 0 206 44l14 -70q-99 -45 -222 -45q-225 0 -369.5 140t-144.5 374q0 236 147.5 382t376.5 146zM557 66q74 0 124 51.5t50 131.5
t-50 132t-124 52q-75 0 -122 -51.5t-47 -132.5q0 -80 47.5 -131.5t121.5 -51.5z" />
    <glyph glyph-name="A" unicode="A" horiz-adv-x="735" 
d="M613 0l-83 210h-325l-83 -210h-88l280 700h107l280 -700h-88zM237 289h262l-131 332z" />
    <glyph glyph-name="B" unicode="B" horiz-adv-x="655" 
d="M490 372q121 -34 121 -178q0 -91 -58.5 -142.5t-170.5 -51.5h-294v700h289q105 0 158.5 -46.5t53.5 -131.5q0 -109 -99 -150zM505 510q0 55 -32 83t-106 28h-196v-221h194q76 0 108 28t32 82zM381 79q147 0 147 121q0 61 -35 92.5t-114 31.5h-208v-245h210z" />
    <glyph glyph-name="C" unicode="C" horiz-adv-x="796" 
d="M420 -11q-155 0 -257.5 103t-102.5 258t102.5 258t257.5 103q117 0 206.5 -63.5t125.5 -170.5h-89q-32 71 -96.5 113t-147.5 42q-118 0 -196.5 -80.5t-78.5 -201.5t78.5 -201.5t196.5 -80.5q83 0 147.5 42t96.5 113h89q-36 -107 -125.5 -170.5t-206.5 -63.5z" />
    <glyph glyph-name="D" unicode="D" horiz-adv-x="741" 
d="M325 700q154 0 256.5 -99t102.5 -251q0 -151 -103 -250.5t-256 -99.5h-237v700h237zM326 79q118 0 196 76.5t79 194.5q0 118 -78.5 194.5t-196.5 76.5h-155v-542h155z" />
    <glyph glyph-name="E" unicode="E" horiz-adv-x="576" 
d="M532 621h-361v-222h337v-79h-337v-241h361v-79h-444v700h444v-79z" />
    <glyph glyph-name="F" unicode="F" horiz-adv-x="576" 
d="M532 621h-361v-227h337v-79h-337v-315h-83v700h444v-79z" />
    <glyph glyph-name="G" unicode="G" horiz-adv-x="838" 
d="M384 364h372v-364h-73v164q-26 -80 -99 -127.5t-172 -47.5q-151 0 -252.5 103t-101.5 258q0 156 103 258.5t257 102.5q118 0 207 -62.5t125 -168.5h-89q-32 70 -97 111t-147 41q-119 0 -197 -80.5t-78 -203.5q0 -121 77 -201.5t198 -80.5q105 0 175.5 62t79.5 165h-288
v71z" />
    <glyph glyph-name="H" unicode="H" horiz-adv-x="748" 
d="M577 700h83v-700h-83v322h-406v-322h-83v700h83v-299h406v299z" />
    <glyph glyph-name="I" unicode="I" horiz-adv-x="259" 
d="M88 0v700h83v-700h-83z" />
    <glyph glyph-name="J" unicode="J" horiz-adv-x="558" 
d="M387 700h84v-481q0 -109 -61 -169.5t-159 -60.5q-97 0 -157 59t-60 167v45h84v-43q0 -75 36 -112t98 -37t98.5 38t36.5 115v479z" />
    <glyph glyph-name="K" unicode="K" horiz-adv-x="641" 
d="M607 0h-107l-329 340v-340h-83v700h83v-328l318 328h106l-331 -343z" />
    <glyph glyph-name="L" unicode="L" horiz-adv-x="542" 
d="M171 79h337v-79h-420v700h83v-621z" />
    <glyph glyph-name="M" unicode="M" horiz-adv-x="819" 
d="M629 700h102v-700h-83v593l-237 -358h-8l-237 358v-593h-83v700h102l222 -334z" />
    <glyph glyph-name="N" unicode="N" horiz-adv-x="738" 
d="M573 700h83v-700h-103l-395 589l8 -296v-293h-83v700h102l395 -589l-7 296v293z" />
    <glyph glyph-name="O" unicode="O" horiz-adv-x="838" 
d="M420 711q153 0 256.5 -103.5t103.5 -257.5t-104 -257.5t-257 -103.5t-257 103.5t-104 257.5t104.5 257.5t257.5 103.5zM419 632q-117 0 -197 -81t-80 -201t80 -201t197 -81q118 0 197.5 80.5t79.5 201.5t-79.5 201.5t-197.5 80.5z" />
    <glyph glyph-name="P" unicode="P" horiz-adv-x="669" 
d="M369 700q114 0 178 -62.5t64 -161.5q0 -100 -64.5 -164t-177.5 -64h-198v-248h-83v700h281zM366 327q79 0 120 42t41 106t-41 105t-120 41h-195v-294h195z" />
    <glyph glyph-name="Q" unicode="Q" horiz-adv-x="838" 
d="M780 350q0 -164 -114 -268l114 -152l-64 -48l-115 153q-81 -46 -182 -46q-153 0 -257 103.5t-104 257.5t104.5 257.5t257.5 103.5t256.5 -103.5t103.5 -257.5zM419 68q118 0 197.5 80.5t79.5 201.5t-79.5 201.5t-197.5 80.5q-117 0 -197 -81t-80 -201t80 -201t197 -81z
" />
    <glyph glyph-name="R" unicode="R" horiz-adv-x="663" 
d="M526 0l-219 271h-136v-271h-83v700h277q113 0 175 -59.5t62 -156.5q0 -88 -51.5 -144t-145.5 -67l224 -273h-103zM171 621v-276h186q80 0 120.5 38.5t40.5 100.5q0 61 -41 99t-120 38h-186z" />
    <glyph glyph-name="S" unicode="S" horiz-adv-x="641" 
d="M331 396q72 -16 113.5 -29t80.5 -35.5t55.5 -55.5t16.5 -81q0 -101 -74 -153.5t-182 -52.5q-132 0 -205.5 61t-91.5 160h84q35 -143 211 -143q82 0 128 32.5t46 92.5q0 53 -42 75t-159 48q-63 14 -102.5 27t-76 34.5t-53.5 54t-17 77.5q0 95 72.5 149t178.5 54
q117 0 185 -51t88 -135h-84q-42 108 -188 108q-78 0 -123.5 -33.5t-45.5 -91.5q0 -43 38.5 -65t146.5 -47z" />
    <glyph glyph-name="T" unicode="T" horiz-adv-x="603" 
d="M569 700v-79h-226v-621h-84v621h-225v79h535z" />
    <glyph glyph-name="U" unicode="U" horiz-adv-x="725" 
d="M557 700h85v-424q0 -139 -77 -213t-200 -74t-200 74t-77 213v424h85v-420q0 -106 52.5 -159t139.5 -53t139.5 53t52.5 159v420z" />
    <glyph glyph-name="V" unicode="V" horiz-adv-x="677" 
d="M556 700h88l-252 -700h-107l-251 700h88l216 -608z" />
    <glyph glyph-name="W" unicode="W" horiz-adv-x="997" 
d="M877 700h86l-195 -700h-105l-71 253l-86 347h-15l-86 -347l-70 -253h-106l-195 700h86l93 -335l70 -280l69 280l93 335h107l93 -335l70 -281l70 281z" />
    <glyph glyph-name="X" unicode="X" horiz-adv-x="633" 
d="M599 0h-99l-184 290l-183 -290h-99l231 360l-221 340h99l174 -274l175 274h99l-223 -345z" />
    <glyph glyph-name="Y" unicode="Y" horiz-adv-x="668" 
d="M635 700l-259 -449v-251h-83v249l-259 451h94l206 -358l206 358h95z" />
    <glyph glyph-name="Z" unicode="Z" horiz-adv-x="595" 
d="M147 79h404v-79h-507v79l404 542h-387v79h489v-79z" />
    <glyph glyph-name="bracketleft" unicode="[" horiz-adv-x="396" 
d="M308 770v-79h-137v-862h137v-79h-220v1020h220z" />
    <glyph glyph-name="backslash" unicode="\" horiz-adv-x="463" 
d="M172 770l203 -770h-84l-203 770h84z" />
    <glyph glyph-name="bracketright" unicode="]" horiz-adv-x="396" 
d="M88 770h220v-1020h-220v79h137v862h-137v79z" />
    <glyph glyph-name="asciicircum" unicode="^" horiz-adv-x="577" 
d="M289 711l201 -201l-59 -58l-142 142l-143 -142l-58 58z" />
    <glyph glyph-name="underscore" unicode="_" horiz-adv-x="636" 
d="M548 -19v-79h-460v79h460z" />
    <glyph glyph-name="grave" unicode="`" horiz-adv-x="392" 
d="M139 840l165 -165l-41 -40l-175 153z" />
    <glyph glyph-name="a" unicode="a" horiz-adv-x="678" 
d="M521 550h83v-550h-83v111q-33 -57 -87.5 -89.5t-124.5 -32.5q-112 0 -184.5 80.5t-72.5 205.5t72.5 205.5t184.5 80.5q70 0 125 -33t87 -91v113zM325 68q85 0 141 58.5t56 148.5t-56 148.5t-141 58.5q-84 0 -136.5 -58.5t-52.5 -148.5q0 -91 53 -149t136 -58z" />
    <glyph glyph-name="b" unicode="b" horiz-adv-x="678" 
d="M369 561q112 0 184.5 -80.5t72.5 -205.5t-73 -205.5t-185 -80.5q-70 0 -124.5 32.5t-86.5 89.5v-111h-83v770h83v-333q32 58 87 91t125 33zM353 68q83 0 136 58t53 149q0 90 -53 148.5t-136 58.5q-85 0 -141 -58.5t-56 -148.5t56 -148.5t141 -58.5z" />
    <glyph glyph-name="c" unicode="c" horiz-adv-x="645" 
d="M336 -11q-121 0 -202.5 81.5t-81.5 204.5t81.5 204.5t202.5 81.5q98 0 172 -55t95 -148h-86q-19 58 -68 92t-113 34q-87 0 -143.5 -59t-56.5 -150t56.5 -150t143.5 -59q64 0 112.5 34t68.5 92h86q-22 -94 -96 -148.5t-171 -54.5z" />
    <glyph glyph-name="d" unicode="d" horiz-adv-x="682" 
d="M525 770h83v-770h-83v111q-32 -57 -87 -89.5t-125 -32.5q-112 0 -184.5 80.5t-72.5 205.5t72.5 205.5t184.5 80.5q70 0 125 -33t87 -91v333zM329 68q85 0 141 58.5t56 148.5t-56 148.5t-141 58.5q-83 0 -136 -58.5t-53 -148.5q0 -91 53 -149t136 -58z" />
    <glyph glyph-name="e" unicode="e" horiz-adv-x="655" 
d="M333 561q128 0 204 -87t71 -224h-471q6 -85 61 -134t139 -49q123 0 172 96h86q-34 -85 -103 -129.5t-158 -44.5q-123 0 -202.5 79.5t-79.5 204.5t79 206.5t202 81.5zM333 483q-74 0 -125.5 -43t-66.5 -112h377q-14 70 -63 112.5t-122 42.5z" />
    <glyph glyph-name="f" unicode="f" horiz-adv-x="477" 
d="M346 707q-131 0 -131 -154v-3h223v-78h-223v-472h-83v472h-106v78h106v7q0 106 56 165t149 59q66 0 118 -23l-15 -69l-14 4q-38 14 -80 14z" />
    <glyph glyph-name="g" unicode="g" horiz-adv-x="678" 
d="M521 550h83v-544q0 -123 -70 -195t-191 -72q-101 0 -175 52t-94 146h86q17 -59 65.5 -91.5t115.5 -32.5q86 0 133 49.5t47 141.5v111q-33 -57 -88 -89.5t-124 -32.5q-112 0 -184.5 80.5t-72.5 203.5q0 124 72.5 204t184.5 80q68 0 124 -33t88 -90v112zM325 72
q84 0 140.5 58t56.5 147t-56.5 147t-140.5 58q-83 0 -136 -58t-53 -147t53 -147t136 -58z" />
    <glyph glyph-name="h" unicode="h" horiz-adv-x="627" 
d="M359 561q94 0 146.5 -56t52.5 -156v-349h-83v333q0 149 -139 149q-83 0 -128.5 -54t-45.5 -146v-282h-83v770h83v-327q61 118 197 118z" />
    <glyph glyph-name="i" unicode="i" horiz-adv-x="230" 
d="M116 792q25 0 41.5 -16t16.5 -39q0 -24 -16.5 -40t-41.5 -16t-41.5 16t-16.5 40q0 23 16.5 39t41.5 16zM74 0v550h83v-550h-83z" />
    <glyph glyph-name="j" unicode="j" horiz-adv-x="230" 
d="M116 792q25 0 41.5 -16t16.5 -39q0 -24 -16.5 -40t-41.5 -16t-41.5 16t-16.5 40q0 23 16.5 39t41.5 16zM74 -250v800h83v-800h-83z" />
    <glyph glyph-name="k" unicode="k" horiz-adv-x="591" 
d="M565 0h-109l-294 265v-265h-83v770h83v-465l268 245h109l-289 -261z" />
    <glyph glyph-name="l" unicode="l" horiz-adv-x="231" 
d="M77 0v770h83v-770h-83z" />
    <glyph glyph-name="m" unicode="m" horiz-adv-x="949" 
d="M697 561q87 0 135 -53.5t48 -150.5v-357h-83v342q0 140 -124 140q-75 0 -115 -56t-40 -144l1 -282h-84v342q0 140 -124 140q-74 0 -114 -56t-40 -144v-282h-83v550h83v-104q58 115 179 115q67 0 111 -32.5t61 -93.5q58 126 189 126z" />
    <glyph glyph-name="n" unicode="n" horiz-adv-x="621" 
d="M354 561q93 0 146 -56t53 -156v-349h-83v333q0 149 -139 149q-83 0 -128.5 -54t-45.5 -146v-282h-83v550h83v-109q60 120 197 120z" />
    <glyph glyph-name="o" unicode="o" horiz-adv-x="670" 
d="M335 561q119 0 201.5 -81.5t82.5 -204.5t-82 -204.5t-202 -81.5q-119 0 -201 82t-82 204t82.5 204t200.5 82zM335 482q-84 0 -141.5 -58.5t-57.5 -148.5t57.5 -148.5t141.5 -58.5q85 0 142.5 58.5t57.5 148.5t-58 148.5t-142 58.5z" />
    <glyph glyph-name="p" unicode="p" horiz-adv-x="683" 
d="M374 561q112 0 184.5 -80.5t72.5 -205.5t-73 -205.5t-185 -80.5q-70 0 -124.5 32.5t-86.5 89.5v-361h-83v800h83v-113q32 58 87 91t125 33zM358 68q83 0 136 58t53 149q0 90 -53 148.5t-136 58.5q-85 0 -141 -58.5t-56 -148.5t56 -148.5t141 -58.5z" />
    <glyph glyph-name="q" unicode="q" horiz-adv-x="678" 
d="M521 550h83v-800h-83v361q-32 -57 -87 -89.5t-125 -32.5q-112 0 -184.5 80.5t-72.5 205.5t72.5 205.5t184.5 80.5q70 0 125 -33t87 -91v113zM325 68q85 0 141 58.5t56 148.5t-56 148.5t-141 58.5q-84 0 -136.5 -58.5t-52.5 -148.5q0 -91 53 -149t136 -58z" />
    <glyph glyph-name="r" unicode="r" horiz-adv-x="413" 
d="M353 561q18 0 34 -2v-85q-18 2 -35 2q-89 0 -142 -56.5t-53 -159.5v-260h-83v550h83v-123q54 134 196 134z" />
    <glyph glyph-name="s" unicode="s" horiz-adv-x="575" 
d="M307 -11q-108 0 -179 48t-87 135h85q16 -56 59.5 -80t121.5 -24q63 0 102.5 21.5t39.5 60.5t-53 60q-21 8 -109 30q-124 31 -171 61t-47 94q0 78 61.5 122t161.5 44q96 0 156.5 -41.5t77.5 -116.5h-84q-30 79 -148 79q-65 0 -103 -22.5t-38 -58.5q0 -31 31 -45.5
t124 -38.5l66.5 -17t54 -17t46.5 -21t31 -25.5t22 -35t6 -44.5q0 -81 -64.5 -124.5t-162.5 -43.5z" />
    <glyph glyph-name="t" unicode="t" horiz-adv-x="516" 
d="M463 93l15 -69q-66 -35 -149 -35q-91 0 -144 57.5t-53 163.5v262h-106v78h106v132l83 18v-150h247v-78h-247v-258q0 -148 128 -148q46 0 120 27z" />
    <glyph glyph-name="u" unicode="u" horiz-adv-x="614" 
d="M460 550h83v-550h-83v109q-62 -120 -196 -120q-92 0 -143.5 56t-51.5 156v349h83v-333q0 -149 136 -149q81 0 126.5 54t45.5 146v282z" />
    <glyph glyph-name="v" unicode="v" horiz-adv-x="569" 
d="M454 550h89l-207 -550h-103l-207 550h89l169 -467z" />
    <glyph glyph-name="w" unicode="w" horiz-adv-x="842" 
d="M733 550h83l-162 -550h-100l-54 185l-71 279h-15l-71 -279l-55 -185h-100l-162 550h83l51 -173l80 -291l79 291l51 173h102l51 -173l79 -290l80 290z" />
    <glyph glyph-name="x" unicode="x" horiz-adv-x="554" 
d="M528 0h-100l-152 219l-150 -219h-100l200 283l-189 267h100l141 -205l139 205h101l-190 -268z" />
    <glyph glyph-name="y" unicode="y" horiz-adv-x="589" 
d="M474 550h89l-371 -800h-89l146 317l-223 483h89l178 -394z" />
    <glyph glyph-name="z" unicode="z" horiz-adv-x="539" 
d="M146 78l352 1v-79h-457v79l348 393l-329 -1v79h435v-79z" />
    <glyph glyph-name="braceleft" unicode="{" horiz-adv-x="500" 
d="M295 439q0 -81 -23.5 -122.5t-80.5 -56.5q57 -15 80.5 -56.5t23.5 -122.5v-54q0 -115 23.5 -160.5t93.5 -48.5v-79q-98 0 -149 66.5t-51 196.5v57q0 86 -19.5 123t-86.5 37h-18v82h18q67 0 86.5 37t19.5 123v57q0 130 51 196.5t149 66.5v-79q-70 -3 -93.5 -48.5
t-23.5 -160.5v-54z" />
    <glyph glyph-name="bar" unicode="|" horiz-adv-x="259" 
d="M171 700v-794h-83v794h83z" />
    <glyph glyph-name="braceright" unicode="}" horiz-adv-x="500" 
d="M394 301h18v-82h-18q-67 0 -86.5 -37t-19.5 -123v-57q0 -130 -51 -196.5t-149 -66.5v79q70 3 93.5 48.5t23.5 160.5v54q0 81 23.5 122.5t80.5 56.5q-57 15 -80.5 56.5t-23.5 122.5v54q0 115 -23.5 160.5t-93.5 48.5v79q98 0 149 -66.5t51 -196.5v-57q0 -86 19.5 -123
t86.5 -37z" />
    <glyph glyph-name="asciitilde" unicode="~" horiz-adv-x="639" 
d="M433 245q-22 0 -45.5 9t-35 16.5l-40.5 27.5l-24.5 17t-25 16.5t-20 9t-24.5 4.5q-60 0 -60 -87h-70q0 82 31.5 121.5t86.5 39.5q22 0 45.5 -9t34.5 -16t40 -27q8 -5 25 -17l24.5 -17t20 -9.5t24.5 -4.5q61 0 61 87h70q0 -82 -31.5 -121.5t-86.5 -39.5z" />
    <glyph glyph-name="exclamdown" unicode="&#xa1;" horiz-adv-x="292" 
d="M146 357q-25 0 -41.5 16t-16.5 40t16.5 40t41.5 16t41.5 -16t16.5 -40t-16.5 -40t-41.5 -16zM188 -242h-84v272l6 222h72l6 -222v-272z" />
    <glyph glyph-name="cent" unicode="&#xa2;" horiz-adv-x="645" 
d="M336 66q64 0 112.5 34t68.5 92h86q-20 -84 -81 -136.5t-145 -63.5v-142h-83v142q-106 14 -174 92.5t-68 190.5q0 111 68 190t174 93v142h83v-141q84 -11 145.5 -64.5t80.5 -136.5h-86q-19 58 -68 92t-113 34q-87 0 -143.5 -59t-56.5 -150t56.5 -150t143.5 -59z" />
    <glyph glyph-name="sterling" unicode="&#xa3;" horiz-adv-x="725" 
d="M584 171h83q0 -94 -42.5 -132.5t-130.5 -38.5h-436v79h49q39 0 53 16.5t14 53.5v150h-116v75h116v117q0 100 59 160t164 60q104 0 165 -59t61 -158h-84q0 64 -34.5 101t-103.5 37q-71 0 -107.5 -38t-36.5 -107v-113h211v-75h-211v-145q0 -53 -31 -75h257q57 0 79 19.5
t22 72.5z" />
    <glyph glyph-name="currency" unicode="&#xa4;" horiz-adv-x="726" 
d="M595 351q0 -75 -39 -133l82 -83l-58 -59l-82 82q-58 -42 -135 -42q-74 0 -135 42l-81 -82l-59 59l82 82q-39 59 -39 134t40 134l-83 83l59 58l82 -82q59 42 134 42q76 0 134 -41l82 81l59 -58l-82 -83q39 -58 39 -134zM363 190q67 0 112 45.5t45 115.5t-45 115.5
t-112 45.5q-66 0 -111 -45.5t-45 -115.5t45 -115.5t111 -45.5z" />
    <glyph glyph-name="yen" unicode="&#xa5;" horiz-adv-x="717" 
d="M659 700l-238 -413h169v-50h-189v-72h189v-49h-189v-116h-84v116h-190v49h190v72h-190v50h168l-237 413h95l206 -358l206 358h94z" />
    <glyph glyph-name="brokenbar" unicode="&#xa6;" horiz-adv-x="259" 
d="M171 700v-355h-83v355h83zM171 260v-354h-83v354h83z" />
    <glyph glyph-name="section" unicode="&#xa7;" horiz-adv-x="647" 
d="M472 175q40 -19 58.5 -45t18.5 -67q0 -79 -59 -122.5t-157 -43.5q-94 0 -157 40.5t-79 117.5h84q14 -48 56.5 -70.5t97.5 -22.5q59 0 94.5 24.5t35.5 67.5q0 33 -29.5 48.5t-118.5 37.5q-42 10 -65 16.5t-54 16.5t-47 20.5t-32.5 25.5t-23 34.5t-6.5 44.5q0 79 86 135
q-40 19 -58.5 45t-18.5 67q0 78 61 122t158 44q94 0 155 -38.5t78 -114.5h-84q-28 88 -151 88q-58 0 -95.5 -25t-37.5 -68q0 -32 29.5 -47.5t118.5 -37.5q52 -13 77.5 -20t60.5 -21t50.5 -28t27.5 -36.5t12 -52.5q0 -79 -86 -135zM174 314q0 -37 29.5 -53.5t112.5 -37.5
q14 -3 21 -5l69 -19q67 44 67 95q0 37 -29.5 53.5t-112.5 37.5q-14 3 -21 5q-9 2 -33.5 9l-35.5 10q-67 -44 -67 -95z" />
    <glyph glyph-name="dieresis" unicode="&#xa8;" horiz-adv-x="511" 
d="M142 789q23 0 38.5 -15t15.5 -37q0 -23 -15.5 -38t-38.5 -15t-38.5 15t-15.5 38q0 22 15.5 37t38.5 15zM368 789q23 0 39 -15t16 -37t-16 -37.5t-39 -15.5t-38.5 15.5t-15.5 37.5t15.5 37t38.5 15z" />
    <glyph glyph-name="copyright" unicode="&#xa9;" horiz-adv-x="716" 
d="M358 781q112 0 191 -79t79 -191t-79 -191t-191 -79t-191 79t-79 191t79 191t191 79zM358 280q95 0 162.5 67.5t67.5 163.5t-67.5 163.5t-162.5 67.5t-162.5 -67.5t-67.5 -163.5t67.5 -163.5t162.5 -67.5zM359 608q-39 0 -66 -27.5t-27 -69.5t27 -69t66 -27q28 0 50 15
t32 40h50q-12 -45 -48.5 -72.5t-83.5 -27.5q-59 0 -99.5 40t-40.5 101t40 101.5t100 40.5q47 0 83.5 -27.5t48.5 -72.5h-50q-10 25 -32 40t-50 15z" />
    <glyph glyph-name="guillemotleft" unicode="&#xab;" horiz-adv-x="647" 
d="M287 80l-199 199l199 199l57 -57l-143 -142l143 -142zM502 80l-199 199l199 199l57 -57l-142 -142l142 -142z" />
    <glyph glyph-name="logicalnot" unicode="&#xac;" horiz-adv-x="677" 
d="M589 341v-215h-83v136h-418v79h501z" />
    <glyph glyph-name="registered" unicode="&#xae;" horiz-adv-x="716" 
d="M358 781q112 0 191 -79t79 -191t-79 -191t-191 -79t-191 79t-79 191t79 191t191 79zM358 280q95 0 162.5 67.5t67.5 163.5t-67.5 163.5t-162.5 67.5t-163 -67.5t-68 -163.5t68 -163.5t163 -67.5zM472 561q0 -34 -20 -57t-57 -28l86 -107h-57l-83 106h-37v-106h-46v278
h124q45 0 67.5 -23.5t22.5 -62.5zM304 607v-95h65q56 0 56 48q0 24 -12.5 35.5t-43.5 11.5h-65z" />
    <glyph glyph-name="macron" unicode="&#xaf;" horiz-adv-x="426" 
d="M338 770v-63h-250v63h250z" />
    <glyph glyph-name="degree" unicode="&#xb0;" horiz-adv-x="519" 
d="M259 781q72 0 122 -50t50 -121t-50.5 -121.5t-121.5 -50.5t-121.5 50.5t-49.5 121.5q-1 71 49.5 121t121.5 50zM259 719q-45 0 -76.5 -31.5t-31.5 -77.5t31.5 -78t76.5 -32t77 32t32 78t-31.5 77.5t-77.5 31.5z" />
    <glyph glyph-name="plusminus" unicode="&#xb1;" horiz-adv-x="677" 
d="M380 545v-145h209v-65h-209v-149h-83v149h-209v65h209v145h83zM589 144v-65h-501v65h501z" />
    <glyph glyph-name="uni00B2" unicode="&#xb2;" horiz-adv-x="416" 
d="M138 432h242v-60h-344v52l145 109q66 49 87 72.5t21 52.5q0 30 -21 48.5t-58 18.5q-83 0 -94 -87h-73q7 65 51 104t118 39q72 0 111.5 -36.5t39.5 -88.5q0 -45 -31.5 -80t-103.5 -83z" />
    <glyph glyph-name="uni00B3" unicode="&#xb3;" horiz-adv-x="413" 
d="M312 585q65 -29 65 -101q0 -52 -42 -88t-119 -36q-74 0 -122.5 35.5t-57.5 98.5h74q16 -78 103 -78q43 0 66.5 19.5t23.5 52.5q0 31 -17 47.5t-46 16.5h-75v50h55q29 0 49.5 15t20.5 43q0 30 -22 47.5t-59 17.5q-36 0 -60.5 -19t-30.5 -58h-74q7 62 52 97.5t115 35.5
q71 0 111.5 -34.5t40.5 -85.5q0 -50 -51 -76z" />
    <glyph glyph-name="acute" unicode="&#xb4;" horiz-adv-x="392" 
d="M252 841l52 -52l-176 -153l-40 39z" />
    <glyph glyph-name="paragraph" unicode="&#xb6;" horiz-adv-x="638" 
d="M190 700h360v-801h-83v722h-148v-722h-83v514h-46q-44 0 -73 29t-29 73v83q0 44 29 73t73 29z" />
    <glyph glyph-name="periodcentered" unicode="&#xb7;" horiz-adv-x="292" 
d="M146 369q25 0 41.5 -16.5t16.5 -40.5t-16.5 -40t-41.5 -16t-41.5 16t-16.5 40t16.5 40.5t41.5 16.5z" />
    <glyph glyph-name="cedilla" unicode="&#xb8;" horiz-adv-x="364" 
d="M185 -81q42 -6 70.5 -28t28.5 -62q0 -44 -37 -67t-100 -23q-41 0 -59 4v46q23 -5 51 -5q79 0 79 49q0 50 -101 56l47 111h60z" />
    <glyph glyph-name="uni00B9" unicode="&#xb9;" horiz-adv-x="269" 
d="M195 770h38v-398h-73v321l-124 -44v67z" />
    <glyph glyph-name="guillemotright" unicode="&#xbb;" horiz-adv-x="647" 
d="M145 80l-57 57l142 142l-142 142l57 57l199 -199zM360 80l-57 57l143 142l-143 142l57 57l199 -199z" />
    <glyph glyph-name="onequarter" unicode="&#xbc;" horiz-adv-x="861" 
d="M233 302h-73v321l-124 -44v67l159 54h38v-398zM565 700h81l-400 -700h-81zM826 145v-60h-73v-85h-73v85h-215v60l196 253h92v-253h73zM529 145h151v198z" />
    <glyph glyph-name="onehalf" unicode="&#xbd;" horiz-adv-x="916" 
d="M233 302h-73v321l-124 -44v67l159 54h38v-398zM565 700h81l-400 -700h-81zM638 60h242v-60h-344v53l145 109q65 48 86.5 71.5t21.5 53.5q0 29 -21 48t-58 19q-82 0 -94 -88h-73q7 66 51 105t118 39q72 0 111.5 -37t39.5 -89q0 -45 -31.5 -80t-103.5 -83z" />
    <glyph glyph-name="threequarters" unicode="&#xbe;" horiz-adv-x="963" 
d="M377 414q0 -52 -42 -88t-119 -36q-74 0 -122.5 35.5t-57.5 98.5h74q16 -78 103 -78q43 0 66.5 19.5t23.5 52.5q0 31 -17 47.5t-46 16.5h-75v50h55q29 0 49.5 15t20.5 43q0 30 -22 47.5t-59 17.5q-36 0 -60.5 -19t-30.5 -58h-74q7 62 52 97.5t115 35.5q71 0 111.5 -34.5
t40.5 -85.5q0 -50 -51 -76q65 -29 65 -101zM667 700h81l-400 -700h-81zM927 145v-60h-73v-85h-73v85h-215v60l196 253h92v-253h73zM630 145h151v198z" />
    <glyph glyph-name="questiondown" unicode="&#xbf;" horiz-adv-x="573" 
d="M297 461q25 0 42 -16t17 -40t-17 -40t-42 -16q-26 0 -43 15.5t-17 40.5t17 40.5t43 15.5zM339 244v-52q0 -26 -7 -44.5t-25.5 -35t-34 -25.5l-48.5 -27q-52 -27 -74.5 -50.5t-22.5 -66.5q0 -57 41.5 -92t115.5 -35q145 0 161 145h84q-9 -110 -76 -166t-171 -56
q-106 0 -172 54.5t-66 147.5q0 67 33 104t100 72q29 15 43 24t26 26t12 39v38h81z" />
    <glyph glyph-name="Agrave" unicode="&#xc0;" horiz-adv-x="735" 
d="M475 810l-41 -40l-175 154l51 51zM613 0l-83 210h-325l-83 -210h-88l280 700h107l280 -700h-88zM237 289h262l-131 332z" />
    <glyph glyph-name="Aacute" unicode="&#xc1;" horiz-adv-x="735" 
d="M475 924l-176 -154l-40 40l164 165zM613 0l-83 210h-325l-83 -210h-88l280 700h107l280 -700h-88zM237 289h262l-131 332z" />
    <glyph glyph-name="Acircumflex" unicode="&#xc2;" horiz-adv-x="735" 
d="M367 892l-118 -122l-46 46l164 166l165 -166l-47 -46zM613 0l-83 210h-325l-83 -210h-88l280 700h107l280 -700h-88zM237 289h262l-131 332z" />
    <glyph glyph-name="Atilde" unicode="&#xc3;" horiz-adv-x="735" 
d="M292 871q-43 0 -43 -77h-54q0 143 95 143q23 0 40 -9.5t46 -35.5q2 -2 7 -6.5t7 -6t6 -5.5t6.5 -5.5t6.5 -4.5t6.5 -4.5t6 -3t7 -2.5t7 -1.5t7.5 -0.5q43 0 43 77h54q0 -144 -95 -144q-23 0 -40 10t-46 36q-2 2 -7 6.5t-7 6t-6 5.5t-6.5 5.5t-6.5 4.5t-6.5 4.5t-6 3
t-7 2.5t-7 1.5t-7.5 0.5zM613 0l-83 210h-325l-83 -210h-88l280 700h107l280 -700h-88zM237 289h262l-131 332z" />
    <glyph glyph-name="Adieresis" unicode="&#xc4;" horiz-adv-x="735" 
d="M254 820q-23 0 -38.5 15t-15.5 37t15.5 37t38.5 15t38.5 -15t15.5 -37t-15.5 -37t-38.5 -15zM480 820q-23 0 -38.5 15t-15.5 37t15.5 37t38.5 15t39 -15t16 -37t-16 -37t-39 -15zM613 0l-83 210h-325l-83 -210h-88l280 700h107l280 -700h-88zM237 289h262l-131 332z" />
    <glyph glyph-name="Aring" unicode="&#xc5;" horiz-adv-x="735" 
d="M368 770q-50 0 -85.5 35.5t-35.5 85.5q0 51 35 86t86 35t86.5 -35t34.5 -86q1 -50 -35 -85.5t-86 -35.5zM368 961q-29 0 -49 -20t-20 -50t20 -50t49 -20t49 20t20 50t-20 50t-49 20zM613 0l-83 210h-325l-83 -210h-88l280 700h107l280 -700h-88zM237 289h262l-131 332z
" />
    <glyph glyph-name="AE" unicode="&#xc6;" horiz-adv-x="858" 
d="M814 621h-362v-222h337v-79h-337v-241h362v-79h-445v210h-164l-83 -210h-88l280 700h107h393v-79zM237 289h132v335z" />
    <glyph glyph-name="Ccedilla" unicode="&#xc7;" horiz-adv-x="796" 
d="M419 68q83 0 147.5 42t96.5 113h89q-35 -106 -124 -169.5t-204 -64.5l-34 -70q42 -6 70.5 -28t28.5 -62q0 -44 -37 -67t-100 -23q-41 0 -59 4v46q23 -5 51 -5q79 0 79 49q0 50 -101 56l44 103q-135 19 -220.5 118.5t-85.5 239.5q0 155 102.5 258t257.5 103
q117 0 206.5 -63.5t125.5 -170.5h-89q-32 71 -96.5 113t-147.5 42q-118 0 -196.5 -80.5t-78.5 -201.5t78.5 -201.5t196.5 -80.5z" />
    <glyph glyph-name="Egrave" unicode="&#xc8;" horiz-adv-x="576" 
d="M396 810l-41 -40l-175 154l51 51zM532 621h-361v-222h337v-79h-337v-241h361v-79h-444v700h444v-79z" />
    <glyph glyph-name="Eacute" unicode="&#xc9;" horiz-adv-x="576" 
d="M396 924l-176 -154l-40 40l164 165zM532 621h-361v-222h337v-79h-337v-241h361v-79h-444v700h444v-79z" />
    <glyph glyph-name="Ecircumflex" unicode="&#xca;" horiz-adv-x="576" 
d="M288 892l-118 -122l-46 46l164 166l165 -166l-47 -46zM532 621h-361v-222h337v-79h-337v-241h361v-79h-444v700h444v-79z" />
    <glyph glyph-name="Edieresis" unicode="&#xcb;" horiz-adv-x="576" 
d="M175 820q-23 0 -38.5 15t-15.5 37t15.5 37t38.5 15t38.5 -15t15.5 -37t-15.5 -37t-38.5 -15zM401 820q-23 0 -38.5 15t-15.5 37t15.5 37t38.5 15t39 -15t16 -37t-16 -37t-39 -15zM532 621h-361v-222h337v-79h-337v-241h361v-79h-444v700h444v-79z" />
    <glyph glyph-name="Igrave" unicode="&#xcc;" horiz-adv-x="259" 
d="M72 975l165 -165l-41 -40l-175 154zM88 0v700h83v-700h-83z" />
    <glyph glyph-name="Iacute" unicode="&#xcd;" horiz-adv-x="259" 
d="M185 975l52 -51l-176 -154l-40 40zM88 0v700h83v-700h-83z" />
    <glyph glyph-name="Icircumflex" unicode="&#xce;" horiz-adv-x="259" 
d="M294 816l-47 -46l-118 122l-118 -122l-46 46l164 166zM88 0v700h83v-700h-83z" />
    <glyph glyph-name="Idieresis" unicode="&#xcf;" horiz-adv-x="259" 
d="M16 924q23 0 38.5 -15t15.5 -37t-15.5 -37t-38.5 -15t-38.5 15t-15.5 37t15.5 37t38.5 15zM242 924q23 0 39 -15t16 -37t-16 -37t-39 -15t-38.5 15t-15.5 37t15.5 37t38.5 15zM88 0v700h83v-700h-83z" />
    <glyph glyph-name="Eth" unicode="&#xd0;" horiz-adv-x="741" 
d="M325 700q154 0 256.5 -99t102.5 -251q0 -151 -103 -250.5t-256 -99.5h-237v310h-71v79h71v311h237zM326 79q118 0 196 76.5t79 194.5q0 118 -78.5 194.5t-196.5 76.5h-155v-232h140v-79h-140v-231h155z" />
    <glyph glyph-name="Ntilde" unicode="&#xd1;" horiz-adv-x="738" 
d="M294 871q-43 0 -43 -77h-54q0 143 95 143q23 0 40 -9.5t46 -35.5q2 -2 7 -6.5t7 -6t6 -5.5t6.5 -5.5t6.5 -4.5t6.5 -4.5t6 -3t7 -2.5t7 -1.5t7.5 -0.5q43 0 43 77h54q0 -144 -95 -144q-23 0 -40 10t-46 36q-2 2 -7 6.5t-7 6t-6 5.5t-6.5 5.5t-6.5 4.5t-6.5 4.5t-6 3
t-7 2.5t-7 1.5t-7.5 0.5zM573 700h83v-700h-103l-395 589l8 -296v-293h-83v700h102l395 -589l-7 296v293z" />
    <glyph glyph-name="Ograve" unicode="&#xd2;" horiz-adv-x="838" 
d="M362 975l165 -165l-41 -40l-175 154zM420 711q153 0 256.5 -103.5t103.5 -257.5t-104 -257.5t-257 -103.5t-257 103.5t-104 257.5t104.5 257.5t257.5 103.5zM419 632q-117 0 -197 -81t-80 -201t80 -201t197 -81q118 0 197.5 80.5t79.5 201.5t-79.5 201.5t-197.5 80.5z
" />
    <glyph glyph-name="Oacute" unicode="&#xd3;" horiz-adv-x="838" 
d="M475 975l52 -51l-176 -154l-40 40zM420 711q153 0 256.5 -103.5t103.5 -257.5t-104 -257.5t-257 -103.5t-257 103.5t-104 257.5t104.5 257.5t257.5 103.5zM419 632q-117 0 -197 -81t-80 -201t80 -201t197 -81q118 0 197.5 80.5t79.5 201.5t-79.5 201.5t-197.5 80.5z" />
    <glyph glyph-name="Ocircumflex" unicode="&#xd4;" horiz-adv-x="838" 
d="M583 816l-47 -46l-118 122l-118 -122l-46 46l164 166zM420 711q153 0 256.5 -103.5t103.5 -257.5t-104 -257.5t-257 -103.5t-257 103.5t-104 257.5t104.5 257.5t257.5 103.5zM419 632q-117 0 -197 -81t-80 -201t80 -201t197 -81q118 0 197.5 80.5t79.5 201.5t-79.5 201.5
t-197.5 80.5z" />
    <glyph glyph-name="Otilde" unicode="&#xd5;" horiz-adv-x="838" 
d="M537 929h54q0 -144 -95 -144q-23 0 -40 10t-46 36q-2 2 -7 6.5t-7 6t-6 5.5t-6.5 5.5t-6.5 4.5t-6.5 4.5t-6 3t-7 2.5t-7 1.5t-7.5 0.5q-43 0 -43 -77h-54q0 143 95 143q23 0 40 -9.5t46 -35.5q2 -2 7 -6.5t7 -6t6 -5.5t6.5 -5.5t6.5 -4.5t6.5 -4.5t6 -3t7 -2.5t7 -1.5
t7.5 -0.5q43 0 43 77zM420 711q153 0 256.5 -103.5t103.5 -257.5t-104 -257.5t-257 -103.5t-257 103.5t-104 257.5t104.5 257.5t257.5 103.5zM419 632q-117 0 -197 -81t-80 -201t80 -201t197 -81q118 0 197.5 80.5t79.5 201.5t-79.5 201.5t-197.5 80.5z" />
    <glyph glyph-name="Odieresis" unicode="&#xd6;" horiz-adv-x="838" 
d="M305 924q23 0 38.5 -15t15.5 -37t-15.5 -37t-38.5 -15t-38.5 15t-15.5 37t15.5 37t38.5 15zM531 924q23 0 39 -15t16 -37t-16 -37t-39 -15t-38.5 15t-15.5 37t15.5 37t38.5 15zM420 711q153 0 256.5 -103.5t103.5 -257.5t-104 -257.5t-257 -103.5t-257 103.5t-104 257.5
t104.5 257.5t257.5 103.5zM419 632q-117 0 -197 -81t-80 -201t80 -201t197 -81q118 0 197.5 80.5t79.5 201.5t-79.5 201.5t-197.5 80.5z" />
    <glyph glyph-name="multiply" unicode="&#xd7;" horiz-adv-x="672" 
d="M527 548l57 -56l-192 -191l192 -193l-57 -56l-192 193l-191 -193l-56 56l191 193l-191 191l56 56l191 -191z" />
    <glyph glyph-name="Oslash" unicode="&#xd8;" horiz-adv-x="838" 
d="M611 659q78 -47 123.5 -128.5t45.5 -180.5q0 -154 -104 -257.5t-257 -103.5q-66 0 -124 20l-22 -44h-84l37 77q-78 47 -123 128t-45 180q0 154 104.5 257.5t257.5 103.5q64 0 122 -20l21 44h85zM142 350q0 -74 32 -135.5t88 -99.5l244 504q-44 13 -87 13q-117 0 -197 -81
t-80 -201zM419 68q118 0 197.5 80.5t79.5 201.5q0 75 -32.5 136.5t-88.5 99.5l-245 -504q44 -14 89 -14z" />
    <glyph glyph-name="Ugrave" unicode="&#xd9;" horiz-adv-x="725" 
d="M306 975l165 -165l-41 -40l-175 154zM557 700h85v-424q0 -139 -77 -213t-200 -74t-200 74t-77 213v424h85v-420q0 -106 52.5 -159t139.5 -53t139.5 53t52.5 159v420z" />
    <glyph glyph-name="Uacute" unicode="&#xda;" horiz-adv-x="725" 
d="M419 975l52 -51l-176 -154l-40 40zM557 700h85v-424q0 -139 -77 -213t-200 -74t-200 74t-77 213v424h85v-420q0 -106 52.5 -159t139.5 -53t139.5 53t52.5 159v420z" />
    <glyph glyph-name="Ucircumflex" unicode="&#xdb;" horiz-adv-x="725" 
d="M527 816l-47 -46l-118 122l-118 -122l-46 46l164 166zM557 700h85v-424q0 -139 -77 -213t-200 -74t-200 74t-77 213v424h85v-420q0 -106 52.5 -159t139.5 -53t139.5 53t52.5 159v420z" />
    <glyph glyph-name="Udieresis" unicode="&#xdc;" horiz-adv-x="725" 
d="M249 924q23 0 38.5 -15t15.5 -37t-15.5 -37t-38.5 -15t-38.5 15t-15.5 37t15.5 37t38.5 15zM475 924q23 0 39 -15t16 -37t-16 -37t-39 -15t-38.5 15t-15.5 37t15.5 37t38.5 15zM557 700h85v-424q0 -139 -77 -213t-200 -74t-200 74t-77 213v424h85v-420q0 -106 52.5 -159
t139.5 -53t139.5 53t52.5 159v420z" />
    <glyph glyph-name="Yacute" unicode="&#xdd;" horiz-adv-x="668" 
d="M442 924l-176 -154l-40 40l164 165zM635 700l-259 -449v-251h-83v249l-259 451h94l206 -358l206 358h95z" />
    <glyph glyph-name="Thorn" unicode="&#xde;" horiz-adv-x="669" 
d="M369 603q114 0 178 -62.5t64 -161.5q0 -100 -64.5 -164t-177.5 -64h-198v-151h-83v700h83v-97h198zM366 230q79 0 120 42t41 106t-41 104.5t-120 40.5h-195v-293h195z" />
    <glyph glyph-name="germandbls" unicode="&#xdf;" horiz-adv-x="623" 
d="M442 404q67 -18 103.5 -72t36.5 -128q0 -102 -65 -158.5t-166 -56.5q-85 0 -139 22l16 76q51 -19 110 -19q73 0 116.5 37t43.5 105q0 63 -40 102.5t-118 39.5h-90v79h71q68 0 106 36t38 95q0 61 -39.5 100.5t-112.5 39.5q-74 0 -115 -43.5t-41 -120.5v-538h-83v540
q0 111 64 176t175 65q108 0 172 -60.5t64 -149.5q0 -57 -28.5 -101t-78.5 -66z" />
    <glyph glyph-name="agrave" unicode="&#xe0;" horiz-adv-x="678" 
d="M451 675l-41 -40l-175 153l51 52zM521 550h83v-550h-83v111q-33 -57 -87.5 -89.5t-124.5 -32.5q-112 0 -184.5 80.5t-72.5 205.5t72.5 205.5t184.5 80.5q70 0 125 -33t87 -91v113zM325 68q85 0 141 58.5t56 148.5t-56 148.5t-141 58.5q-84 0 -136.5 -58.5t-52.5 -148.5
q0 -91 53 -149t136 -58z" />
    <glyph glyph-name="aacute" unicode="&#xe1;" horiz-adv-x="678" 
d="M451 789l-176 -153l-40 39l164 166zM521 550h83v-550h-83v111q-33 -57 -87.5 -89.5t-124.5 -32.5q-112 0 -184.5 80.5t-72.5 205.5t72.5 205.5t184.5 80.5q70 0 125 -33t87 -91v113zM325 68q85 0 141 58.5t56 148.5t-56 148.5t-141 58.5q-84 0 -136.5 -58.5t-52.5 -148.5
q0 -91 53 -149t136 -58z" />
    <glyph glyph-name="acircumflex" unicode="&#xe2;" horiz-adv-x="678" 
d="M342 758l-118 -122l-46 46l164 165l165 -165l-47 -46zM521 550h83v-550h-83v111q-33 -57 -87.5 -89.5t-124.5 -32.5q-112 0 -184.5 80.5t-72.5 205.5t72.5 205.5t184.5 80.5q70 0 125 -33t87 -91v113zM325 68q85 0 141 58.5t56 148.5t-56 148.5t-141 58.5
q-84 0 -136.5 -58.5t-52.5 -148.5q0 -91 53 -149t136 -58z" />
    <glyph glyph-name="atilde" unicode="&#xe3;" horiz-adv-x="678" 
d="M267 740q-43 0 -43 -77h-54q0 143 95 143q23 0 40.5 -9.5t45.5 -35.5q2 -2 7 -6.5t7 -6t6 -5.5t6.5 -5.5t6.5 -4.5t6.5 -4.5t6 -3t7 -2.5t7 -1.5t7.5 -0.5q43 0 43 77h54q0 -143 -95 -143q-23 0 -40.5 9.5t-45.5 35.5q-2 2 -7 6.5t-7 6t-6 5.5t-6.5 5.5t-6.5 4.5
t-6.5 4.5t-6 3t-7 2.5t-7 1.5t-7.5 0.5zM521 550h83v-550h-83v111q-33 -57 -87.5 -89.5t-124.5 -32.5q-112 0 -184.5 80.5t-72.5 205.5t72.5 205.5t184.5 80.5q70 0 125 -33t87 -91v113zM325 68q85 0 141 58.5t56 148.5t-56 148.5t-141 58.5q-84 0 -136.5 -58.5
t-52.5 -148.5q0 -91 53 -149t136 -58z" />
    <glyph glyph-name="adieresis" unicode="&#xe4;" horiz-adv-x="678" 
d="M229 684q-23 0 -38.5 15t-15.5 38q0 22 15.5 37t38.5 15t38.5 -15t15.5 -37q0 -23 -15.5 -38t-38.5 -15zM455 684q-23 0 -38.5 15.5t-15.5 37.5t15.5 37t38.5 15t39 -15t16 -37t-16 -37.5t-39 -15.5zM521 550h83v-550h-83v111q-33 -57 -87.5 -89.5t-124.5 -32.5
q-112 0 -184.5 80.5t-72.5 205.5t72.5 205.5t184.5 80.5q70 0 125 -33t87 -91v113zM325 68q85 0 141 58.5t56 148.5t-56 148.5t-141 58.5q-84 0 -136.5 -58.5t-52.5 -148.5q0 -91 53 -149t136 -58z" />
    <glyph glyph-name="aring" unicode="&#xe5;" horiz-adv-x="678" 
d="M343 636q-50 0 -85.5 35.5t-35.5 85.5t35 85.5t86 35.5t86.5 -35.5t34.5 -85.5q1 -50 -35 -85.5t-86 -35.5zM343 827q-29 0 -49 -20t-20 -50t20 -50t49 -20t49 20t20 50t-20 50t-49 20zM521 550h83v-550h-83v111q-33 -57 -87.5 -89.5t-124.5 -32.5q-112 0 -184.5 80.5
t-72.5 205.5t72.5 205.5t184.5 80.5q70 0 125 -33t87 -91v113zM325 68q85 0 141 58.5t56 148.5t-56 148.5t-141 58.5q-84 0 -136.5 -58.5t-52.5 -148.5q0 -91 53 -149t136 -58z" />
    <glyph glyph-name="ae" unicode="&#xe6;" horiz-adv-x="1125" 
d="M803 561q128 0 204 -87t71 -224h-471q6 -85 61 -134t139 -49q123 0 172 96h86q-34 -85 -103 -129.5t-158 -44.5q-132 0 -213 90v-79h-70v110q-32 -56 -87.5 -89t-124.5 -33q-112 0 -184.5 81t-72.5 206q0 124 72.5 205t184.5 81q69 0 124.5 -33.5t87.5 -91.5v114h71v-80
q80 91 211 91zM803 483q-74 0 -125.5 -43t-66.5 -112h377q-14 70 -63 112.5t-122 42.5zM325 68q85 0 141 58t56 149q0 90 -56 148.5t-141 58.5q-83 0 -136 -58.5t-53 -148.5q0 -91 53 -149t136 -58z" />
    <glyph glyph-name="ccedilla" unicode="&#xe7;" horiz-adv-x="645" 
d="M336 66q64 0 112.5 34t68.5 92h86q-21 -90 -90.5 -144t-160.5 -59l-34 -70q42 -6 70.5 -28t28.5 -62q0 -44 -37 -67t-100 -23q-41 0 -59 4v46q23 -5 51 -5q79 0 79 49q0 50 -101 56l43 103q-105 14 -173 93t-68 190q0 123 81.5 204.5t202.5 81.5q98 0 172 -55t95 -148
h-86q-19 58 -68 92t-113 34q-87 0 -143.5 -59t-56.5 -150t56.5 -150t143.5 -59z" />
    <glyph glyph-name="egrave" unicode="&#xe8;" horiz-adv-x="655" 
d="M435 675l-41 -40l-175 153l51 52zM333 561q128 0 204 -87t71 -224h-471q6 -85 61 -134t139 -49q123 0 172 96h86q-34 -85 -103 -129.5t-158 -44.5q-123 0 -202.5 79.5t-79.5 204.5t79 206.5t202 81.5zM333 483q-74 0 -125.5 -43t-66.5 -112h377q-14 70 -63 112.5
t-122 42.5z" />
    <glyph glyph-name="eacute" unicode="&#xe9;" horiz-adv-x="655" 
d="M435 789l-176 -153l-40 39l164 166zM333 561q128 0 204 -87t71 -224h-471q6 -85 61 -134t139 -49q123 0 172 96h86q-34 -85 -103 -129.5t-158 -44.5q-123 0 -202.5 79.5t-79.5 204.5t79 206.5t202 81.5zM333 483q-74 0 -125.5 -43t-66.5 -112h377q-14 70 -63 112.5
t-122 42.5z" />
    <glyph glyph-name="ecircumflex" unicode="&#xea;" horiz-adv-x="655" 
d="M326 758l-118 -122l-46 46l164 165l165 -165l-47 -46zM333 561q128 0 204 -87t71 -224h-471q6 -85 61 -134t139 -49q123 0 172 96h86q-34 -85 -103 -129.5t-158 -44.5q-123 0 -202.5 79.5t-79.5 204.5t79 206.5t202 81.5zM333 483q-74 0 -125.5 -43t-66.5 -112h377
q-14 70 -63 112.5t-122 42.5z" />
    <glyph glyph-name="edieresis" unicode="&#xeb;" horiz-adv-x="655" 
d="M213 684q-23 0 -38.5 15t-15.5 38q0 22 15.5 37t38.5 15t38.5 -15t15.5 -37q0 -23 -15.5 -38t-38.5 -15zM439 684q-23 0 -38.5 15.5t-15.5 37.5t15.5 37t38.5 15t39 -15t16 -37t-16 -37.5t-39 -15.5zM333 561q128 0 204 -87t71 -224h-471q6 -85 61 -134t139 -49
q123 0 172 96h86q-34 -85 -103 -129.5t-158 -44.5q-123 0 -202.5 79.5t-79.5 204.5t79 206.5t202 81.5zM333 483q-74 0 -125.5 -43t-66.5 -112h377q-14 70 -63 112.5t-122 42.5z" />
    <glyph glyph-name="igrave" unicode="&#xec;" horiz-adv-x="230" 
d="M58 840l165 -165l-41 -40l-175 153zM74 0v550h83v-550h-83z" />
    <glyph glyph-name="iacute" unicode="&#xed;" horiz-adv-x="230" 
d="M171 841l52 -52l-176 -153l-40 39zM74 0v550h83v-550h-83z" />
    <glyph glyph-name="icircumflex" unicode="&#xee;" horiz-adv-x="230" 
d="M280 682l-47 -46l-118 122l-118 -122l-46 46l164 165zM74 0v550h83v-550h-83z" />
    <glyph glyph-name="idieresis" unicode="&#xef;" horiz-adv-x="230" 
d="M2 789q23 0 38.5 -15t15.5 -37q0 -23 -15.5 -38t-38.5 -15t-38.5 15t-15.5 38q0 22 15.5 37t38.5 15zM228 789q23 0 39 -15t16 -37t-16 -37.5t-39 -15.5t-38.5 15.5t-15.5 37.5t15.5 37t38.5 15zM74 0v550h83v-550h-83z" />
    <glyph glyph-name="eth" unicode="&#xf0;" horiz-adv-x="665" 
d="M613 707l-79 -69q79 -112 79 -330q-1 -153 -80.5 -236t-201.5 -83q-120 0 -199.5 79t-79.5 205q0 119 72 193.5t182 74.5q70 0 129.5 -33.5t90.5 -95.5q-9 86 -35.5 143.5t-75 89.5t-110.5 45t-150 13v78q218 0 323 -84l81 71zM334 61q85 0 140.5 57.5t55.5 151.5
q0 88 -60.5 143.5t-144.5 55.5q-83 0 -136.5 -55.5t-53.5 -144.5q0 -93 57 -150.5t142 -57.5z" />
    <glyph glyph-name="ntilde" unicode="&#xf1;" horiz-adv-x="621" 
d="M235 740q-43 0 -43 -77h-54q0 143 95 143q23 0 40.5 -9.5t45.5 -35.5q2 -2 7 -6.5t7 -6t6 -5.5t6.5 -5.5t6.5 -4.5t6.5 -4.5t6 -3t7 -2.5t7 -1.5t7.5 -0.5q43 0 43 77h54q0 -143 -95 -143q-23 0 -40.5 9.5t-45.5 35.5q-2 2 -7 6.5t-7 6t-6 5.5t-6.5 5.5t-6.5 4.5
t-6.5 4.5t-6 3t-7 2.5t-7 1.5t-7.5 0.5zM354 561q93 0 146 -56t53 -156v-349h-83v333q0 149 -139 149q-83 0 -128.5 -54t-45.5 -146v-282h-83v550h83v-109q60 120 197 120z" />
    <glyph glyph-name="ograve" unicode="&#xf2;" horiz-adv-x="670" 
d="M278 840l165 -165l-41 -40l-175 153zM335 561q119 0 201.5 -81.5t82.5 -204.5t-82 -204.5t-202 -81.5q-119 0 -201 82t-82 204t82.5 204t200.5 82zM335 482q-84 0 -141.5 -58.5t-57.5 -148.5t57.5 -148.5t141.5 -58.5q85 0 142.5 58.5t57.5 148.5t-58 148.5t-142 58.5z
" />
    <glyph glyph-name="oacute" unicode="&#xf3;" horiz-adv-x="670" 
d="M391 841l52 -52l-176 -153l-40 39zM335 561q119 0 201.5 -81.5t82.5 -204.5t-82 -204.5t-202 -81.5q-119 0 -201 82t-82 204t82.5 204t200.5 82zM335 482q-84 0 -141.5 -58.5t-57.5 -148.5t57.5 -148.5t141.5 -58.5q85 0 142.5 58.5t57.5 148.5t-58 148.5t-142 58.5z" />
    <glyph glyph-name="ocircumflex" unicode="&#xf4;" horiz-adv-x="670" 
d="M499 682l-47 -46l-118 122l-118 -122l-46 46l164 165zM335 561q119 0 201.5 -81.5t82.5 -204.5t-82 -204.5t-202 -81.5q-119 0 -201 82t-82 204t82.5 204t200.5 82zM335 482q-84 0 -141.5 -58.5t-57.5 -148.5t57.5 -148.5t141.5 -58.5q85 0 142.5 58.5t57.5 148.5
t-58 148.5t-142 58.5z" />
    <glyph glyph-name="otilde" unicode="&#xf5;" horiz-adv-x="670" 
d="M453 798h54q0 -143 -95 -143q-23 0 -40.5 9.5t-45.5 35.5q-2 2 -7 6.5t-7 6t-6 5.5t-6.5 5.5t-6.5 4.5t-6.5 4.5t-6 3t-7 2.5t-7 1.5t-7.5 0.5q-43 0 -43 -77h-54q0 143 95 143q23 0 40.5 -9.5t45.5 -35.5q2 -2 7 -6.5t7 -6t6 -5.5t6.5 -5.5t6.5 -4.5t6.5 -4.5t6 -3
t7 -2.5t7 -1.5t7.5 -0.5q43 0 43 77zM335 561q119 0 201.5 -81.5t82.5 -204.5t-82 -204.5t-202 -81.5q-119 0 -201 82t-82 204t82.5 204t200.5 82zM335 482q-84 0 -141.5 -58.5t-57.5 -148.5t57.5 -148.5t141.5 -58.5q85 0 142.5 58.5t57.5 148.5t-58 148.5t-142 58.5z" />
    <glyph glyph-name="odieresis" unicode="&#xf6;" horiz-adv-x="670" 
d="M221 789q23 0 38.5 -15t15.5 -37q0 -23 -15.5 -38t-38.5 -15t-38.5 15t-15.5 38q0 22 15.5 37t38.5 15zM447 789q23 0 39 -15t16 -37t-16 -37.5t-39 -15.5t-38.5 15.5t-15.5 37.5t15.5 37t38.5 15zM335 561q119 0 201.5 -81.5t82.5 -204.5t-82 -204.5t-202 -81.5
q-119 0 -201 82t-82 204t82.5 204t200.5 82zM335 482q-84 0 -141.5 -58.5t-57.5 -148.5t57.5 -148.5t141.5 -58.5q85 0 142.5 58.5t57.5 148.5t-58 148.5t-142 58.5z" />
    <glyph glyph-name="divide" unicode="&#xf7;" horiz-adv-x="677" 
d="M339 532q24 0 41 -16t17 -40t-17 -39t-41 -15q-26 0 -42.5 15t-16.5 39t17 40t42 16zM589 341v-79h-501v79h501zM339 181q24 0 41 -15t17 -39t-16.5 -39.5t-41.5 -15.5q-26 0 -42.5 15t-16.5 40q0 24 16.5 39t42.5 15z" />
    <glyph glyph-name="oslash" unicode="&#xf8;" horiz-adv-x="670" 
d="M523 492q96 -83 96 -217q0 -123 -82 -204.5t-202 -81.5q-79 0 -145 39l-20 -28h-65l42 59q-95 82 -95 216q0 122 82.5 204t200.5 82q77 0 145 -38l19 27h65zM136 275q0 -91 59 -150l238 332q-45 25 -98 25q-84 0 -141.5 -58.5t-57.5 -148.5zM335 68q85 0 142.5 58.5
t57.5 148.5q0 91 -60 151l-238 -333q45 -25 98 -25z" />
    <glyph glyph-name="ugrave" unicode="&#xf9;" horiz-adv-x="614" 
d="M414 675l-41 -40l-175 153l51 52zM460 550h83v-550h-83v109q-62 -120 -196 -120q-92 0 -143.5 56t-51.5 156v349h83v-333q0 -149 136 -149q81 0 126.5 54t45.5 146v282z" />
    <glyph glyph-name="uacute" unicode="&#xfa;" horiz-adv-x="614" 
d="M414 789l-176 -153l-40 39l164 166zM460 550h83v-550h-83v109q-62 -120 -196 -120q-92 0 -143.5 56t-51.5 156v349h83v-333q0 -149 136 -149q81 0 126.5 54t45.5 146v282z" />
    <glyph glyph-name="ucircumflex" unicode="&#xfb;" horiz-adv-x="614" 
d="M305 758l-118 -122l-46 46l164 165l165 -165l-47 -46zM460 550h83v-550h-83v109q-62 -120 -196 -120q-92 0 -143.5 56t-51.5 156v349h83v-333q0 -149 136 -149q81 0 126.5 54t45.5 146v282z" />
    <glyph glyph-name="udieresis" unicode="&#xfc;" horiz-adv-x="614" 
d="M192 684q-23 0 -38.5 15t-15.5 38q0 22 15.5 37t38.5 15t38.5 -15t15.5 -37q0 -23 -15.5 -38t-38.5 -15zM418 684q-23 0 -38.5 15.5t-15.5 37.5t15.5 37t38.5 15t39 -15t16 -37t-16 -37.5t-39 -15.5zM460 550h83v-550h-83v109q-62 -120 -196 -120q-92 0 -143.5 56
t-51.5 156v349h83v-333q0 -149 136 -149q81 0 126.5 54t45.5 146v282z" />
    <glyph glyph-name="yacute" unicode="&#xfd;" horiz-adv-x="589" 
d="M402 789l-176 -153l-40 39l164 166zM474 550h89l-371 -800h-89l146 317l-223 483h89l178 -394z" />
    <glyph glyph-name="thorn" unicode="&#xfe;" horiz-adv-x="683" 
d="M374 561q112 0 184.5 -80.5t72.5 -205.5t-73 -205.5t-185 -80.5q-70 0 -124.5 32.5t-86.5 89.5v-361h-83v1020h83v-333q32 58 87 91t125 33zM358 68q83 0 136 58t53 149q0 90 -53 148.5t-136 58.5q-85 0 -141 -58.5t-56 -148.5t56 -148.5t141 -58.5z" />
    <glyph glyph-name="ydieresis" unicode="&#xff;" horiz-adv-x="589" 
d="M181 684q-23 0 -38.5 15t-15.5 38q0 22 15.5 37t38.5 15t38.5 -15t15.5 -37q0 -23 -15.5 -38t-38.5 -15zM407 684q-23 0 -38.5 15.5t-15.5 37.5t15.5 37t38.5 15t39 -15t16 -37t-16 -37.5t-39 -15.5zM474 550h89l-371 -800h-89l146 317l-223 483h89l178 -394z" />
    <glyph glyph-name="Amacron" unicode="&#x100;" horiz-adv-x="735" 
d="M492 904v-62h-250v62h250zM613 0l-83 210h-325l-83 -210h-88l280 700h107l280 -700h-88zM237 289h262l-131 332z" />
    <glyph glyph-name="amacron" unicode="&#x101;" horiz-adv-x="678" 
d="M468 770v-63h-250v63h250zM521 550h83v-550h-83v111q-33 -57 -87.5 -89.5t-124.5 -32.5q-112 0 -184.5 80.5t-72.5 205.5t72.5 205.5t184.5 80.5q70 0 125 -33t87 -91v113zM325 68q85 0 141 58.5t56 148.5t-56 148.5t-141 58.5q-84 0 -136.5 -58.5t-52.5 -148.5
q0 -91 53 -149t136 -58z" />
    <glyph glyph-name="Abreve" unicode="&#x102;" horiz-adv-x="735" 
d="M367 781q-68 0 -114 41.5t-46 110.5v18h68v-15q0 -41 25 -65t67 -24t67.5 24t25.5 65v15h68v-18q0 -69 -46.5 -110.5t-114.5 -41.5zM613 0l-83 210h-325l-83 -210h-88l280 700h107l280 -700h-88zM237 289h262l-131 332z" />
    <glyph glyph-name="abreve" unicode="&#x103;" horiz-adv-x="678" 
d="M343 647q-68 0 -114 41.5t-46 110.5v18h68v-16q0 -40 25.5 -64.5t66.5 -24.5q42 0 67.5 24.5t25.5 64.5v16h68v-18q0 -69 -46.5 -110.5t-114.5 -41.5zM521 550h83v-550h-83v111q-33 -57 -87.5 -89.5t-124.5 -32.5q-112 0 -184.5 80.5t-72.5 205.5t72.5 205.5t184.5 80.5
q70 0 125 -33t87 -91v113zM325 68q85 0 141 58.5t56 148.5t-56 148.5t-141 58.5q-84 0 -136.5 -58.5t-52.5 -148.5q0 -91 53 -149t136 -58z" />
    <glyph glyph-name="Aogonek" unicode="&#x104;" horiz-adv-x="735" 
d="M592 -159q0 -52 64 -52q26 0 46 5v-51q-18 -4 -58 -4q-53 0 -85.5 23.5t-32.5 68.5q0 28 17.5 57.5t36.5 49t64 62.5h-31l-83 210h-325l-83 -210h-88l280 700h107l280 -700h1q-64 -67 -87 -98.5t-23 -60.5zM237 289h262l-131 332z" />
    <glyph glyph-name="aogonek" unicode="&#x105;" horiz-adv-x="678" 
d="M521 550h83v-550h-1q-64 -67 -87 -98.5t-23 -60.5q0 -52 64 -52q26 0 46 5v-51q-18 -4 -58 -4q-53 0 -85.5 23.5t-32.5 68.5q0 40 26 75t88 94h-20v111q-33 -57 -87.5 -89.5t-124.5 -32.5q-112 0 -184.5 80.5t-72.5 205.5t72.5 205.5t184.5 80.5q70 0 125 -33t87 -91v113
zM325 68q85 0 141 58.5t56 148.5t-56 148.5t-141 58.5q-84 0 -136.5 -58.5t-52.5 -148.5q0 -91 53 -149t136 -58z" />
    <glyph glyph-name="Cacute" unicode="&#x106;" horiz-adv-x="796" 
d="M454 975l52 -51l-176 -154l-40 40zM420 -11q-155 0 -257.5 103t-102.5 258t102.5 258t257.5 103q117 0 206.5 -63.5t125.5 -170.5h-89q-32 71 -96.5 113t-147.5 42q-118 0 -196.5 -80.5t-78.5 -201.5t78.5 -201.5t196.5 -80.5q83 0 147.5 42t96.5 113h89
q-36 -107 -125.5 -170.5t-206.5 -63.5z" />
    <glyph glyph-name="cacute" unicode="&#x107;" horiz-adv-x="645" 
d="M381 841l52 -52l-176 -153l-40 39zM336 -11q-121 0 -202.5 81.5t-81.5 204.5t81.5 204.5t202.5 81.5q98 0 172 -55t95 -148h-86q-19 58 -68 92t-113 34q-87 0 -143.5 -59t-56.5 -150t56.5 -150t143.5 -59q64 0 112.5 34t68.5 92h86q-22 -94 -96 -148.5t-171 -54.5z" />
    <glyph glyph-name="Ccaron" unicode="&#x10c;" horiz-adv-x="796" 
d="M562 936l-165 -164l-164 164l46 47l118 -122l118 122zM420 -11q-155 0 -257.5 103t-102.5 258t102.5 258t257.5 103q117 0 206.5 -63.5t125.5 -170.5h-89q-32 71 -96.5 113t-147.5 42q-118 0 -196.5 -80.5t-78.5 -201.5t78.5 -201.5t196.5 -80.5q83 0 147.5 42t96.5 113
h89q-36 -107 -125.5 -170.5t-206.5 -63.5z" />
    <glyph glyph-name="ccaron" unicode="&#x10d;" horiz-adv-x="645" 
d="M489 800l-165 -164l-164 164l46 47l118 -122l118 122zM336 -11q-121 0 -202.5 81.5t-81.5 204.5t81.5 204.5t202.5 81.5q98 0 172 -55t95 -148h-86q-19 58 -68 92t-113 34q-87 0 -143.5 -59t-56.5 -150t56.5 -150t143.5 -59q64 0 112.5 34t68.5 92h86q-22 -94 -96 -148.5
t-171 -54.5z" />
    <glyph glyph-name="Dcaron" unicode="&#x10e;" horiz-adv-x="741" 
d="M489 936l-165 -164l-164 164l46 47l118 -122l118 122zM325 700q154 0 256.5 -99t102.5 -251q0 -151 -103 -250.5t-256 -99.5h-237v700h237zM326 79q118 0 196 76.5t79 194.5q0 118 -78.5 194.5t-196.5 76.5h-155v-542h155z" />
    <glyph glyph-name="dcaron" unicode="&#x10f;" horiz-adv-x="682" 
d="M778 740q1 -22 -49 -136h-52l45 95q-39 7 -39 40q0 20 14 32.5t34 12.5q18 0 32 -12t15 -32zM525 437v333h83v-770h-83v111q-32 -57 -87 -89.5t-125 -32.5q-112 0 -184.5 80.5t-72.5 205.5t72.5 205.5t184.5 80.5q70 0 125 -33t87 -91zM329 68q85 0 141 58.5t56 148.5
t-56 148.5t-141 58.5q-83 0 -136 -58.5t-53 -148.5q0 -91 53 -149t136 -58z" />
    <glyph glyph-name="Dcroat" unicode="&#x110;" horiz-adv-x="741" 
d="M325 700q154 0 256.5 -99t102.5 -251q0 -151 -103 -250.5t-256 -99.5h-237v310h-71v79h71v311h237zM326 79q118 0 196 76.5t79 194.5q0 118 -78.5 194.5t-196.5 76.5h-155v-232h140v-79h-140v-231h155z" />
    <glyph glyph-name="dcroat" unicode="&#x111;" horiz-adv-x="682" 
d="M665 703v-79h-57v-624h-83v111q-32 -57 -87 -89.5t-125 -32.5q-112 0 -184.5 80.5t-72.5 205.5t72.5 205.5t184.5 80.5q70 0 125 -33t87 -91v187h-154v79h154v67h83v-67h57zM329 68q85 0 141 58.5t56 148.5t-56 148.5t-141 58.5q-83 0 -136 -58.5t-53 -148.5
q0 -91 53 -149t136 -58z" />
    <glyph glyph-name="Emacron" unicode="&#x112;" horiz-adv-x="576" 
d="M413 904v-62h-250v62h250zM532 621h-361v-222h337v-79h-337v-241h361v-79h-444v700h444v-79z" />
    <glyph glyph-name="emacron" unicode="&#x113;" horiz-adv-x="655" 
d="M452 770v-63h-250v63h250zM333 561q128 0 204 -87t71 -224h-471q6 -85 61 -134t139 -49q123 0 172 96h86q-34 -85 -103 -129.5t-158 -44.5q-123 0 -202.5 79.5t-79.5 204.5t79 206.5t202 81.5zM333 483q-74 0 -125.5 -43t-66.5 -112h377q-14 70 -63 112.5t-122 42.5z" />
    <glyph glyph-name="Edotaccent" unicode="&#x116;" horiz-adv-x="576" 
d="M289 820q-23 0 -38.5 15t-15.5 37t15.5 37t38.5 15t38.5 -15t15.5 -37t-15.5 -37t-38.5 -15zM532 621h-361v-222h337v-79h-337v-241h361v-79h-444v700h444v-79z" />
    <glyph glyph-name="edotaccent" unicode="&#x117;" horiz-adv-x="655" 
d="M327 681q-25 0 -41.5 16t-16.5 40q0 23 16.5 39t41.5 16t41.5 -16t16.5 -39q0 -24 -16.5 -40t-41.5 -16zM333 561q128 0 204 -87t71 -224h-471q6 -85 61 -134t139 -49q123 0 172 96h86q-34 -85 -103 -129.5t-158 -44.5q-123 0 -202.5 79.5t-79.5 204.5t79 206.5t202 81.5
zM333 483q-74 0 -125.5 -43t-66.5 -112h377q-14 70 -63 112.5t-122 42.5z" />
    <glyph glyph-name="Eogonek" unicode="&#x118;" horiz-adv-x="576" 
d="M532 621h-361v-222h337v-79h-337v-241h361v-79q-64 -67 -87 -98.5t-23 -60.5q0 -52 64 -52q26 0 46 5v-51q-18 -4 -58 -4q-53 0 -85.5 23.5t-32.5 68.5q0 28 17.5 57.5t36.5 49t64 62.5h-386v700h444v-79z" />
    <glyph glyph-name="eogonek" unicode="&#x119;" horiz-adv-x="655" 
d="M333 561q128 0 204 -87t71 -224h-471q6 -85 61 -134t139 -49q123 0 172 96h86q-50 -127 -176 -163h4q-64 -67 -87 -98.5t-23 -60.5q0 -52 64 -52q26 0 46 5v-51q-18 -4 -58 -4q-53 0 -85.5 23.5t-32.5 68.5q0 38 24 72t79 86h-16q-123 0 -202.5 79.5t-79.5 204.5
t79 206.5t202 81.5zM333 483q-74 0 -125.5 -43t-66.5 -112h377q-14 70 -63 112.5t-122 42.5z" />
    <glyph glyph-name="Ecaron" unicode="&#x11a;" horiz-adv-x="576" 
d="M453 936l-165 -164l-164 164l46 47l118 -122l118 122zM532 621h-361v-222h337v-79h-337v-241h361v-79h-444v700h444v-79z" />
    <glyph glyph-name="ecaron" unicode="&#x11b;" horiz-adv-x="655" 
d="M491 800l-165 -164l-164 164l46 47l118 -122l118 122zM333 561q128 0 204 -87t71 -224h-471q6 -85 61 -134t139 -49q123 0 172 96h86q-34 -85 -103 -129.5t-158 -44.5q-123 0 -202.5 79.5t-79.5 204.5t79 206.5t202 81.5zM333 483q-74 0 -125.5 -43t-66.5 -112h377
q-14 70 -63 112.5t-122 42.5z" />
    <glyph glyph-name="Gcommaaccent" unicode="&#x122;" horiz-adv-x="838" 
d="M384 364h372v-364h-73v164q-26 -80 -99 -127.5t-172 -47.5q-151 0 -252.5 103t-101.5 258q0 156 103 258.5t257 102.5q118 0 207 -62.5t125 -168.5h-89q-32 70 -97 111t-147 41q-119 0 -197 -80.5t-78 -203.5q0 -121 77 -201.5t198 -80.5q105 0 175.5 62t79.5 165h-288
v71zM424 -70q19 0 33 -11.5t15 -32.5q0 -24 -50 -136h-51l45 95q-39 7 -39 41q0 19 14 31.5t33 12.5z" />
    <glyph glyph-name="gcommaaccent" unicode="&#x123;" horiz-adv-x="678" 
d="M335 636q-18 0 -32 12t-15 32q-1 21 50 136h51l-45 -96q39 -5 39 -40q0 -20 -14 -32t-34 -12zM521 550h83v-544q0 -123 -70 -195t-191 -72q-101 0 -175 52t-94 146h86q17 -59 65.5 -91.5t115.5 -32.5q86 0 133 49.5t47 141.5v111q-33 -57 -88 -89.5t-124 -32.5
q-112 0 -184.5 80.5t-72.5 203.5q0 124 72.5 204t184.5 80q68 0 124 -33t88 -90v112zM325 72q84 0 140.5 58t56.5 147t-56.5 147t-140.5 58q-83 0 -136 -58t-53 -147t53 -147t136 -58z" />
    <glyph glyph-name="Imacron" unicode="&#x12a;" horiz-adv-x="259" 
d="M254 904v-62h-250v62h250zM88 0v700h83v-700h-83z" />
    <glyph glyph-name="imacron" unicode="&#x12b;" horiz-adv-x="230" 
d="M240 770v-63h-250v63h250zM74 0v550h83v-550h-83z" />
    <glyph glyph-name="Iogonek" unicode="&#x12e;" horiz-adv-x="259" 
d="M88 700h83v-700q-64 -67 -87 -98.5t-23 -60.5q0 -52 64 -52q26 0 46 5v-51q-18 -4 -58 -4q-53 0 -85.5 23.5t-32.5 68.5q0 28 17.5 57.5t36.5 49t64 62.5h-25v700z" />
    <glyph glyph-name="iogonek" unicode="&#x12f;" horiz-adv-x="230" 
d="M116 792q25 0 41.5 -16t16.5 -39q0 -24 -16.5 -40t-41.5 -16t-41.5 16t-16.5 40q0 23 16.5 39t41.5 16zM74 0v550h83v-550h-1q-64 -67 -87 -98.5t-23 -60.5q0 -52 64 -52q26 0 46 5v-51q-18 -4 -58 -4q-53 0 -85.5 23.5t-32.5 68.5q0 40 26 75t88 94h-20z" />
    <glyph glyph-name="dotlessi" unicode="&#x131;" horiz-adv-x="230" 
d="M74 0v550h83v-550h-83z" />
    <glyph glyph-name="Kcommaaccent" unicode="&#x136;" horiz-adv-x="641" 
d="M264 357l343 -357h-107l-329 340v-340h-83v700h83v-328l318 328h106zM325 -70q19 0 33 -11.5t15 -32.5q0 -24 -50 -136h-51l45 95q-39 7 -39 41q0 19 14 31.5t33 12.5z" />
    <glyph glyph-name="kcommaaccent" unicode="&#x137;" horiz-adv-x="591" 
d="M250 289l315 -289h-109l-294 265v-265h-83v770h83v-465l268 245h109zM301 -70q19 0 33 -11.5t15 -32.5q0 -24 -50 -136h-51l45 95q-39 7 -39 41q0 19 14 31.5t33 12.5z" />
    <glyph glyph-name="Lacute" unicode="&#x139;" horiz-adv-x="542" 
d="M379 924l-176 -154l-40 40l164 165zM171 79h337v-79h-420v700h83v-621z" />
    <glyph glyph-name="lacute" unicode="&#x13a;" horiz-adv-x="231" 
d="M170 1045l52 -51l-176 -154l-40 40zM77 0v770h83v-770h-83z" />
    <glyph glyph-name="Lcommaaccent" unicode="&#x13b;" horiz-adv-x="542" 
d="M171 79h337v-79h-420v700h83v-621zM276 -70q19 0 33 -11.5t15 -32.5q0 -24 -50 -136h-51l45 95q-39 7 -39 41q0 19 14 31.5t33 12.5z" />
    <glyph glyph-name="lcommaaccent" unicode="&#x13c;" horiz-adv-x="231" 
d="M160 770v-770h-83v770h83zM120 -70q19 0 33 -11.5t15 -32.5q0 -24 -50 -136h-51l45 95q-39 7 -39 41q0 19 14 31.5t33 12.5z" />
    <glyph glyph-name="Lcaron" unicode="&#x13d;" horiz-adv-x="542" 
d="M374 531h-51l44 95q-38 7 -38 40q0 20 13.5 32.5t33.5 12.5q18 0 32.5 -11.5t15.5 -32.5q0 -22 -50 -136zM171 79h337v-79h-420v700h83v-621z" />
    <glyph glyph-name="lcaron" unicode="&#x13e;" horiz-adv-x="229" 
d="M330 740q1 -22 -49 -136h-51l44 95q-38 7 -38 40q0 20 13.5 32.5t33.5 12.5q19 0 32.5 -11.5t14.5 -32.5zM77 0v770h83v-770h-83z" />
    <glyph glyph-name="Lslash" unicode="&#x141;" horiz-adv-x="542" 
d="M171 79h337v-79h-420v278l-69 -17v80l69 17v342h83v-321l142 35v-80l-142 -35v-220z" />
    <glyph glyph-name="lslash" unicode="&#x142;" horiz-adv-x="229" 
d="M247 406v-80l-87 -21v-305h-83v284l-91 -23v80l91 23v406h83v-386z" />
    <glyph glyph-name="Nacute" unicode="&#x143;" horiz-adv-x="738" 
d="M477 924l-176 -154l-40 40l164 165zM573 700h83v-700h-103l-395 589l8 -296v-293h-83v700h102l395 -589l-7 296v293z" />
    <glyph glyph-name="nacute" unicode="&#x144;" horiz-adv-x="621" 
d="M419 789l-176 -153l-40 39l164 166zM354 561q93 0 146 -56t53 -156v-349h-83v333q0 149 -139 149q-83 0 -128.5 -54t-45.5 -146v-282h-83v550h83v-109q60 120 197 120z" />
    <glyph glyph-name="Ncommaaccent" unicode="&#x145;" horiz-adv-x="738" 
d="M573 700h83v-700h-103l-395 589l8 -296v-293h-83v700h102l395 -589l-7 296v293zM374 -70q19 0 33 -11.5t15 -32.5q0 -24 -50 -136h-51l45 95q-39 7 -39 41q0 19 14 31.5t33 12.5z" />
    <glyph glyph-name="ncommaaccent" unicode="&#x146;" horiz-adv-x="621" 
d="M354 561q93 0 146 -56t53 -156v-349h-83v333q0 149 -139 149q-83 0 -128.5 -54t-45.5 -146v-282h-83v550h83v-109q60 120 197 120zM316 -70q19 0 33 -11.5t15 -32.5q0 -24 -50 -136h-51l45 95q-39 7 -39 41q0 19 14 31.5t33 12.5z" />
    <glyph glyph-name="Ncaron" unicode="&#x147;" horiz-adv-x="738" 
d="M533 936l-165 -164l-164 164l46 47l118 -122l118 122zM573 700h83v-700h-103l-395 589l8 -296v-293h-83v700h102l395 -589l-7 296v293z" />
    <glyph glyph-name="ncaron" unicode="&#x148;" horiz-adv-x="621" 
d="M475 800l-165 -164l-164 164l46 47l118 -122l118 122zM354 561q93 0 146 -56t53 -156v-349h-83v333q0 149 -139 149q-83 0 -128.5 -54t-45.5 -146v-282h-83v550h83v-109q60 120 197 120z" />
    <glyph glyph-name="Eng" unicode="&#x14a;" horiz-adv-x="738" 
d="M573 700h83v-700v-40q0 -106 -53.5 -163.5t-144.5 -57.5q-85 0 -148 35l15 69q74 -27 120 -27q63 0 95.5 38.5t32.5 109.5v36h-20l-395 589l8 -296v-293h-83v700h102l388 -578v10h6l-6 275v293z" />
    <glyph glyph-name="eng" unicode="&#x14b;" horiz-adv-x="621" 
d="M354 561q93 0 146 -56t53 -156v-349v-40q0 -106 -53.5 -163.5t-144.5 -57.5q-85 0 -148 35l14 69q76 -27 121 -27q63 0 95.5 38.5t32.5 109.5v162v207q0 149 -139 149q-83 0 -128.5 -54t-45.5 -146v-282h-83v550h83v-109q60 120 197 120z" />
    <glyph glyph-name="Omacron" unicode="&#x14c;" horiz-adv-x="838" 
d="M544 904v-62h-250v62h250zM420 711q153 0 256.5 -103.5t103.5 -257.5t-104 -257.5t-257 -103.5t-257 103.5t-104 257.5t104.5 257.5t257.5 103.5zM419 632q-117 0 -197 -81t-80 -201t80 -201t197 -81q118 0 197.5 80.5t79.5 201.5t-79.5 201.5t-197.5 80.5z" />
    <glyph glyph-name="omacron" unicode="&#x14d;" horiz-adv-x="670" 
d="M460 770v-63h-250v63h250zM335 561q119 0 201.5 -81.5t82.5 -204.5t-82 -204.5t-202 -81.5q-119 0 -201 82t-82 204t82.5 204t200.5 82zM335 482q-84 0 -141.5 -58.5t-57.5 -148.5t57.5 -148.5t141.5 -58.5q85 0 142.5 58.5t57.5 148.5t-58 148.5t-142 58.5z" />
    <glyph glyph-name="Ohungarumlaut" unicode="&#x150;" horiz-adv-x="838" 
d="M382 983l54 -27l-114 -186l-41 21zM502 983l54 -27l-113 -186l-42 21zM420 711q153 0 256.5 -103.5t103.5 -257.5t-104 -257.5t-257 -103.5t-257 103.5t-104 257.5t104.5 257.5t257.5 103.5zM419 632q-117 0 -197 -81t-80 -201t80 -201t197 -81q118 0 197.5 80.5
t79.5 201.5t-79.5 201.5t-197.5 80.5z" />
    <glyph glyph-name="ohungarumlaut" unicode="&#x151;" horiz-adv-x="670" 
d="M298 848l54 -26l-114 -186l-41 20zM418 848l54 -26l-113 -186l-42 20zM335 561q119 0 201.5 -81.5t82.5 -204.5t-82 -204.5t-202 -81.5q-119 0 -201 82t-82 204t82.5 204t200.5 82zM335 482q-84 0 -141.5 -58.5t-57.5 -148.5t57.5 -148.5t141.5 -58.5q85 0 142.5 58.5
t57.5 148.5t-58 148.5t-142 58.5z" />
    <glyph glyph-name="OE" unicode="&#x152;" horiz-adv-x="1185" 
d="M1141 621h-362v-222h338v-79h-338v-241h362v-79h-445v126q-46 -64 -118 -100.5t-158 -36.5q-153 0 -257.5 103.5t-104.5 257.5t104.5 257.5t257.5 103.5q86 0 158 -36.5t118 -100.5v126h445v-79zM420 68q117 0 196.5 80.5t79.5 201.5t-79.5 201.5t-196.5 80.5
q-118 0 -198 -81t-80 -201t80 -201t198 -81z" />
    <glyph glyph-name="oe" unicode="&#x153;" horiz-adv-x="1138" 
d="M816 561q128 0 204 -87t71 -224h-471q6 -85 61 -134t139 -49q123 0 172 96h86q-34 -85 -103 -129.5t-158 -44.5q-80 0 -144 35.5t-100 98.5q-36 -62 -99 -98.5t-139 -36.5q-119 0 -201 82t-82 205q0 122 82.5 204t200.5 82q77 0 140 -36.5t98 -99.5q36 64 99.5 100
t143.5 36zM816 483q-74 0 -125.5 -43t-66.5 -112h377q-14 70 -63 112.5t-122 42.5zM335 68q85 0 142.5 58.5t57.5 148.5t-58 148.5t-142 58.5t-141.5 -58.5t-57.5 -148.5t57.5 -148.5t141.5 -58.5z" />
    <glyph glyph-name="Racute" unicode="&#x154;" horiz-adv-x="663" 
d="M440 924l-176 -154l-40 40l164 165zM526 0l-219 271h-136v-271h-83v700h277q113 0 175 -59.5t62 -156.5q0 -88 -51.5 -144t-145.5 -67l224 -273h-103zM171 621v-276h186q80 0 120.5 38.5t40.5 100.5q0 61 -41 99t-120 38h-186z" />
    <glyph glyph-name="racute" unicode="&#x155;" horiz-adv-x="413" 
d="M315 789l-176 -153l-40 39l164 166zM353 561q18 0 34 -2v-85q-18 2 -35 2q-89 0 -142 -56.5t-53 -159.5v-260h-83v550h83v-123q54 134 196 134z" />
    <glyph glyph-name="Rcommaaccent" unicode="&#x156;" horiz-adv-x="663" 
d="M405 273l224 -273h-103l-219 271h-136v-271h-83v700h277q113 0 175 -59.5t62 -156.5q0 -88 -51.5 -144t-145.5 -67zM171 621v-276h186q80 0 120.5 38.5t40.5 100.5q0 61 -41 99t-120 38h-186zM337 -70q19 0 33 -11.5t15 -32.5q0 -24 -50 -136h-51l45 95q-39 7 -39 41
q0 19 14 31.5t33 12.5z" />
    <glyph glyph-name="rcommaaccent" unicode="&#x157;" horiz-adv-x="413" 
d="M353 561q18 0 34 -2v-85q-18 2 -35 2q-89 0 -142 -56.5t-53 -159.5v-260h-83v550h83v-123q54 134 196 134zM212 -70q19 0 33 -11.5t15 -32.5q0 -24 -50 -136h-51l45 95q-39 7 -39 41q0 19 14 31.5t33 12.5z" />
    <glyph glyph-name="Rcaron" unicode="&#x158;" horiz-adv-x="663" 
d="M496 936l-165 -164l-164 164l46 47l118 -122l118 122zM526 0l-219 271h-136v-271h-83v700h277q113 0 175 -59.5t62 -156.5q0 -88 -51.5 -144t-145.5 -67l224 -273h-103zM171 621v-276h186q80 0 120.5 38.5t40.5 100.5q0 61 -41 99t-120 38h-186z" />
    <glyph glyph-name="rcaron" unicode="&#x159;" horiz-adv-x="413" 
d="M371 800l-165 -164l-164 164l46 47l118 -122l118 122zM353 561q18 0 34 -2v-85q-18 2 -35 2q-89 0 -142 -56.5t-53 -159.5v-260h-83v550h83v-123q54 134 196 134z" />
    <glyph glyph-name="Sacute" unicode="&#x15a;" horiz-adv-x="641" 
d="M377 975l52 -51l-176 -154l-40 40zM331 396q72 -16 113.5 -29t80.5 -35.5t55.5 -55.5t16.5 -81q0 -101 -74 -153.5t-182 -52.5q-132 0 -205.5 61t-91.5 160h84q35 -143 211 -143q82 0 128 32.5t46 92.5q0 53 -42 75t-159 48q-63 14 -102.5 27t-76 34.5t-53.5 54t-17 77.5
q0 95 72.5 149t178.5 54q117 0 185 -51t88 -135h-84q-42 108 -188 108q-78 0 -123.5 -33.5t-45.5 -91.5q0 -43 38.5 -65t146.5 -47z" />
    <glyph glyph-name="sacute" unicode="&#x15b;" horiz-adv-x="575" 
d="M344 841l52 -52l-176 -153l-40 39zM307 -11q-108 0 -179 48t-87 135h85q16 -56 59.5 -80t121.5 -24q63 0 102.5 21.5t39.5 60.5t-53 60q-21 8 -109 30q-124 31 -171 61t-47 94q0 78 61.5 122t161.5 44q96 0 156.5 -41.5t77.5 -116.5h-84q-30 79 -148 79q-65 0 -103 -22.5
t-38 -58.5q0 -31 31 -45.5t124 -38.5l66.5 -17t54 -17t46.5 -21t31 -25.5t22 -35t6 -44.5q0 -81 -64.5 -124.5t-162.5 -43.5z" />
    <glyph glyph-name="Scedilla" unicode="&#x15e;" horiz-adv-x="641" 
d="M597 195q0 -100 -72.5 -152t-177.5 -54l-34 -70q42 -6 70.5 -28t28.5 -62q0 -44 -37 -67t-100 -23q-41 0 -59 4v46q22 -5 51 -5q79 0 79 49q0 50 -101 56l43 103q-107 12 -168 70.5t-76 147.5h84q35 -143 211 -143q82 0 128 32.5t46 92.5q0 53 -42 75t-159 48
q-63 14 -102.5 27t-76 34.5t-53.5 54t-17 77.5q0 95 72.5 149t178.5 54q117 0 185 -51t88 -135h-84q-42 108 -188 108q-78 0 -123.5 -33.5t-45.5 -91.5q0 -43 38.5 -65t146.5 -47q72 -16 113.5 -29t80.5 -35.5t55.5 -55.5t16.5 -81z" />
    <glyph glyph-name="scedilla" unicode="&#x15f;" horiz-adv-x="575" 
d="M534 157q0 -80 -62 -123t-158 -45l-34 -70q42 -6 70.5 -28t28.5 -62q0 -44 -37 -67t-100 -23q-41 0 -59 4v46q23 -5 51 -5q79 0 79 49q0 50 -101 56l44 103q-88 11 -144.5 57.5t-70.5 122.5h85q16 -56 59.5 -80t121.5 -24q63 0 102.5 21.5t39.5 60.5t-53 60
q-21 8 -109 30q-124 31 -171 61t-47 94q0 78 61.5 122t161.5 44q96 0 156.5 -41.5t77.5 -116.5h-84q-30 79 -148 79q-65 0 -103 -22.5t-38 -58.5q0 -31 31 -45.5t124 -38.5l66.5 -17t54 -17t46.5 -21t31 -25.5t22 -35t6 -44.5z" />
    <glyph glyph-name="Scaron" unicode="&#x160;" horiz-adv-x="641" 
d="M485 936l-165 -164l-164 164l46 47l118 -122l118 122zM331 396q72 -16 113.5 -29t80.5 -35.5t55.5 -55.5t16.5 -81q0 -101 -74 -153.5t-182 -52.5q-132 0 -205.5 61t-91.5 160h84q35 -143 211 -143q82 0 128 32.5t46 92.5q0 53 -42 75t-159 48q-63 14 -102.5 27t-76 34.5
t-53.5 54t-17 77.5q0 95 72.5 149t178.5 54q117 0 185 -51t88 -135h-84q-42 108 -188 108q-78 0 -123.5 -33.5t-45.5 -91.5q0 -43 38.5 -65t146.5 -47z" />
    <glyph glyph-name="scaron" unicode="&#x161;" horiz-adv-x="575" 
d="M452 800l-165 -164l-164 164l46 47l118 -122l118 122zM307 -11q-108 0 -179 48t-87 135h85q16 -56 59.5 -80t121.5 -24q63 0 102.5 21.5t39.5 60.5t-53 60q-21 8 -109 30q-124 31 -171 61t-47 94q0 78 61.5 122t161.5 44q96 0 156.5 -41.5t77.5 -116.5h-84
q-30 79 -148 79q-65 0 -103 -22.5t-38 -58.5q0 -31 31 -45.5t124 -38.5l66.5 -17t54 -17t46.5 -21t31 -25.5t22 -35t6 -44.5q0 -81 -64.5 -124.5t-162.5 -43.5z" />
    <glyph glyph-name="uni0162" unicode="&#x162;" horiz-adv-x="603" 
d="M343 0h-10l-39 -81q42 -6 70.5 -28t28.5 -62q0 -44 -37 -67t-100 -23q-41 0 -59 4v46q22 -5 51 -5q79 0 79 49q0 50 -101 56l47 111h-14v621h-225v79h535v-79h-226v-621z" />
    <glyph glyph-name="uni0163" unicode="&#x163;" horiz-adv-x="516" 
d="M323 -81q42 -6 70.5 -28t28.5 -62q0 -44 -37 -67t-100 -23q-41 0 -59 4v46q23 -5 51 -5q79 0 79 49q0 50 -101 56l43 102q-77 9 -121.5 65.5t-44.5 153.5v262h-106v78h106v132l83 18v-150h247v-78h-247v-258q0 -148 128 -148q46 0 120 27l15 -69q-52 -27 -121 -34z" />
    <glyph glyph-name="Tcaron" unicode="&#x164;" horiz-adv-x="603" 
d="M466 936l-165 -164l-164 164l46 47l118 -122l118 122zM569 700v-79h-226v-621h-84v621h-225v79h535z" />
    <glyph glyph-name="tcaron" unicode="&#x165;" horiz-adv-x="524" 
d="M383 604h-51l44 95q-38 7 -38 40q0 20 13.5 32.5t33.5 12.5q18 0 32.5 -11.5t15.5 -32.5q0 -23 -50 -136zM463 93l15 -69q-66 -35 -149 -35q-91 0 -144 57.5t-53 163.5v262h-106v78h106v132l83 18v-150h247v-78h-247v-258q0 -148 128 -148q46 0 120 27z" />
    <glyph glyph-name="Tbar" unicode="&#x166;" horiz-adv-x="603" 
d="M569 621h-226v-232h106v-79h-106v-310h-84v310h-104v79h104v232h-225v79h535v-79z" />
    <glyph glyph-name="tbar" unicode="&#x167;" horiz-adv-x="516" 
d="M463 93l15 -69q-66 -35 -149 -35q-91 0 -144 57.5t-53 163.5v25h-106v79h106v158h-106v78h106v132l83 18v-150h247v-78h-247v-158h105v-79h-105v-21q0 -148 128 -148q46 0 120 27z" />
    <glyph glyph-name="Umacron" unicode="&#x16a;" horiz-adv-x="725" 
d="M488 904v-62h-250v62h250zM557 700h85v-424q0 -139 -77 -213t-200 -74t-200 74t-77 213v424h85v-420q0 -106 52.5 -159t139.5 -53t139.5 53t52.5 159v420z" />
    <glyph glyph-name="umacron" unicode="&#x16b;" horiz-adv-x="614" 
d="M430 770v-63h-250v63h250zM460 550h83v-550h-83v109q-62 -120 -196 -120q-92 0 -143.5 56t-51.5 156v349h83v-333q0 -149 136 -149q81 0 126.5 54t45.5 146v282z" />
    <glyph glyph-name="Uring" unicode="&#x16e;" horiz-adv-x="725" 
d="M363 1012q51 0 86.5 -35t34.5 -86q1 -50 -35 -85.5t-86 -35.5t-85.5 35.5t-35.5 85.5q0 51 35 86t86 35zM363 961q-29 0 -49 -20t-20 -50t20 -50t49 -20t49 20t20 50t-20 50t-49 20zM557 700h85v-424q0 -139 -77 -213t-200 -74t-200 74t-77 213v424h85v-420
q0 -106 52.5 -159t139.5 -53t139.5 53t52.5 159v420z" />
    <glyph glyph-name="uring" unicode="&#x16f;" horiz-adv-x="614" 
d="M306 636q-50 0 -85.5 35.5t-35.5 85.5t35 85.5t86 35.5t86.5 -35.5t34.5 -85.5q1 -50 -35 -85.5t-86 -35.5zM306 827q-29 0 -49 -20t-20 -50t20 -50t49 -20t49 20t20 50t-20 50t-49 20zM460 550h83v-550h-83v109q-62 -120 -196 -120q-92 0 -143.5 56t-51.5 156v349h83
v-333q0 -149 136 -149q81 0 126.5 54t45.5 146v282z" />
    <glyph glyph-name="Uhungarumlaut" unicode="&#x170;" horiz-adv-x="725" 
d="M326 983l54 -27l-114 -186l-41 21zM446 983l54 -27l-113 -186l-42 21zM557 700h85v-424q0 -139 -77 -213t-200 -74t-200 74t-77 213v424h85v-420q0 -106 52.5 -159t139.5 -53t139.5 53t52.5 159v420z" />
    <glyph glyph-name="uhungarumlaut" unicode="&#x171;" horiz-adv-x="614" 
d="M323 822l-114 -186l-41 20l101 192zM330 636l-42 20l101 192l54 -26zM460 550h83v-550h-83v109q-62 -120 -196 -120q-92 0 -143.5 56t-51.5 156v349h83v-333q0 -149 136 -149q81 0 126.5 54t45.5 146v282z" />
    <glyph glyph-name="Uogonek" unicode="&#x172;" horiz-adv-x="725" 
d="M557 700h85v-424q0 -112 -51 -182.5t-138 -93.5q-64 -67 -87 -98.5t-23 -60.5q0 -52 64 -52q26 0 46 5v-51q-18 -4 -58 -4q-53 0 -85.5 23.5t-32.5 68.5q0 38 24.5 71t82.5 87h-19q-123 0 -200 74t-77 213v424h85v-420q0 -106 52.5 -159t139.5 -53t139.5 53t52.5 159v420
z" />
    <glyph glyph-name="uogonek" unicode="&#x173;" horiz-adv-x="614" 
d="M433 -159q0 -52 64 -52q26 0 46 5v-51q-18 -4 -58 -4q-53 0 -85.5 23.5t-32.5 68.5q0 40 26 75t88 94h-21v109q-62 -120 -196 -120q-92 0 -143.5 56t-51.5 156v349h83v-333q0 -149 136 -149q81 0 126.5 54t45.5 146v282h83v-550q-64 -67 -87 -98.5t-23 -60.5z" />
    <glyph glyph-name="Wcircumflex" unicode="&#x174;" horiz-adv-x="997" 
d="M498 892l-118 -122l-46 46l164 166l165 -166l-47 -46zM877 700h86l-195 -700h-105l-71 253l-86 347h-15l-86 -347l-70 -253h-106l-195 700h86l93 -335l70 -280l69 280l93 335h107l93 -335l70 -281l70 281z" />
    <glyph glyph-name="wcircumflex" unicode="&#x175;" horiz-adv-x="842" 
d="M421 758l-118 -122l-46 46l164 165l165 -165l-47 -46zM733 550h83l-162 -550h-100l-54 185l-71 279h-15l-71 -279l-55 -185h-100l-162 550h83l51 -173l80 -291l79 291l51 173h102l51 -173l79 -290l80 290z" />
    <glyph glyph-name="Ycircumflex" unicode="&#x176;" horiz-adv-x="668" 
d="M334 892l-118 -122l-46 46l164 166l165 -166l-47 -46zM635 700l-259 -449v-251h-83v249l-259 451h94l206 -358l206 358h95z" />
    <glyph glyph-name="ycircumflex" unicode="&#x177;" horiz-adv-x="589" 
d="M293 758l-118 -122l-46 46l164 165l165 -165l-47 -46zM474 550h89l-371 -800h-89l146 317l-223 483h89l178 -394z" />
    <glyph glyph-name="Ydieresis" unicode="&#x178;" horiz-adv-x="668" 
d="M221 820q-23 0 -38.5 15t-15.5 37t15.5 37t38.5 15t38.5 -15t15.5 -37t-15.5 -37t-38.5 -15zM447 820q-23 0 -38.5 15t-15.5 37t15.5 37t38.5 15t39 -15t16 -37t-16 -37t-39 -15zM635 700l-259 -449v-251h-83v249l-259 451h94l206 -358l206 358h95z" />
    <glyph glyph-name="Zacute" unicode="&#x179;" horiz-adv-x="595" 
d="M406 924l-176 -154l-40 40l164 165zM147 79h404v-79h-507v79l404 542h-387v79h489v-79z" />
    <glyph glyph-name="zacute" unicode="&#x17a;" horiz-adv-x="539" 
d="M378 789l-176 -153l-40 39l164 166zM146 78l352 1v-79h-457v79l348 393l-329 -1v79h435v-79z" />
    <glyph glyph-name="Zdotaccent" unicode="&#x17b;" horiz-adv-x="595" 
d="M298 820q-23 0 -38.5 15t-15.5 37t15.5 37t38.5 15t38.5 -15t15.5 -37t-15.5 -37t-38.5 -15zM147 79h404v-79h-507v79l404 542h-387v79h489v-79z" />
    <glyph glyph-name="zdotaccent" unicode="&#x17c;" horiz-adv-x="539" 
d="M270 681q-25 0 -41.5 16t-16.5 40q0 23 16.5 39t41.5 16t41.5 -16t16.5 -39q0 -24 -16.5 -40t-41.5 -16zM146 78l352 1v-79h-457v79l348 393l-329 -1v79h435v-79z" />
    <glyph glyph-name="Zcaron" unicode="&#x17d;" horiz-adv-x="595" 
d="M462 936l-165 -164l-164 164l46 47l118 -122l118 122zM147 79h404v-79h-507v79l404 542h-387v79h489v-79z" />
    <glyph glyph-name="zcaron" unicode="&#x17e;" horiz-adv-x="539" 
d="M434 800l-165 -164l-164 164l46 47l118 -122l118 122zM146 78l352 1v-79h-457v79l348 393l-329 -1v79h435v-79z" />
    <glyph glyph-name="uni0237" unicode="&#x237;" horiz-adv-x="230" 
d="M74 -250v800h83v-800h-83z" />
    <glyph glyph-name="circumflex" unicode="&#x2c6;" horiz-adv-x="505" 
d="M417 682l-47 -46l-118 122l-118 -122l-46 46l164 165z" />
    <glyph glyph-name="caron" unicode="&#x2c7;" horiz-adv-x="505" 
d="M417 800l-165 -164l-164 164l46 47l118 -122l118 122z" />
    <glyph glyph-name="breve" unicode="&#x2d8;" horiz-adv-x="492" 
d="M407 817v-18q0 -69 -46.5 -110.5t-114.5 -41.5t-114 41.5t-46 110.5v18h68v-16q0 -40 25.5 -64.5t66.5 -24.5q42 0 67.5 24.5t25.5 64.5v16h68z" />
    <glyph glyph-name="dotaccent" unicode="&#x2d9;" horiz-adv-x="283" 
d="M142 792q25 0 41.5 -16t16.5 -39q0 -24 -16.5 -40t-41.5 -16t-41.5 16t-16.5 40q0 23 16.5 39t41.5 16z" />
    <glyph glyph-name="ring" unicode="&#x2da;" horiz-adv-x="418" 
d="M209 878q51 0 86.5 -35.5t34.5 -85.5q1 -50 -35 -85.5t-86 -35.5t-85.5 35.5t-35.5 85.5t35 85.5t86 35.5zM209 827q-29 0 -49 -20t-20 -50t20 -50t49 -20t49 20t20 50t-20 50t-49 20z" />
    <glyph glyph-name="ogonek" unicode="&#x2db;" horiz-adv-x="344" 
d="M264 -257q-18 -4 -58 -4q-53 0 -85.5 23.5t-32.5 68.5q0 41 26.5 76.5t91.5 96.5l58 -4q-64 -67 -87 -98.5t-23 -60.5q0 -52 64 -52q26 0 46 5v-51z" />
    <glyph glyph-name="tilde" unicode="&#x2dc;" horiz-adv-x="515" 
d="M379 798h54q0 -143 -95 -143q-23 0 -40.5 9.5t-45.5 35.5q-2 2 -7 6.5t-7 6t-6 5.5t-6.5 5.5t-6.5 4.5t-6.5 4.5t-6 3t-7 2.5t-7 1.5t-7.5 0.5q-43 0 -43 -77h-54q0 143 95 143q23 0 40.5 -9.5t45.5 -35.5q2 -2 7 -6.5t7 -6t6 -5.5t6.5 -5.5t6.5 -4.5t6.5 -4.5t6 -3
t7 -2.5t7 -1.5t7.5 -0.5q43 0 43 77z" />
    <glyph glyph-name="hungarumlaut" unicode="&#x2dd;" horiz-adv-x="451" 
d="M189 848l54 -26l-114 -186l-41 20zM309 848l54 -26l-113 -186l-42 20z" />
    <glyph glyph-name="gravecomb" unicode="&#x300;" 
d="M-253 840l165 -165l-41 -40l-175 153z" />
    <glyph glyph-name="acutecomb" unicode="&#x301;" 
d="M-140 841l52 -52l-176 -153l-40 39z" />
    <glyph glyph-name="uni0302" unicode="&#x302;" 
d="M-88 682l-47 -46l-118 122l-118 -122l-46 46l164 165z" />
    <glyph glyph-name="tildecomb" unicode="&#x303;" 
d="M-142 798h54q0 -143 -95 -143q-23 0 -40.5 9.5t-45.5 35.5q-2 2 -7 6.5t-7 6t-6 5.5t-6.5 5.5t-6.5 4.5t-6.5 4.5t-6 3t-7 2.5t-7 1.5t-7.5 0.5q-43 0 -43 -77h-54q0 143 95 143q23 0 40.5 -9.5t45.5 -35.5q2 -2 7 -6.5t7 -6t6 -5.5t6.5 -5.5t6.5 -4.5t6.5 -4.5t6 -3
t7 -2.5t7 -1.5t7.5 -0.5q43 0 43 77z" />
    <glyph glyph-name="uni0304" unicode="&#x304;" 
d="M-88 770v-63h-250v63h250z" />
    <glyph glyph-name="uni0306" unicode="&#x306;" 
d="M-85 817v-18q0 -69 -46.5 -110.5t-114.5 -41.5t-114 41.5t-46 110.5v18h68v-16q0 -40 25.5 -64.5t66.5 -24.5q42 0 67.5 24.5t25.5 64.5v16h68z" />
    <glyph glyph-name="uni0307" unicode="&#x307;" 
d="M-141 792q25 0 41.5 -16t16.5 -39q0 -24 -16.5 -40t-41.5 -16t-41.5 16t-16.5 40q0 23 16.5 39t41.5 16z" />
    <glyph glyph-name="uni0308" unicode="&#x308;" 
d="M-369 789q23 0 38.5 -15t15.5 -37q0 -23 -15.5 -38t-38.5 -15t-38.5 15t-15.5 38q0 22 15.5 37t38.5 15zM-143 789q23 0 39 -15t16 -37t-16 -37.5t-39 -15.5t-38.5 15.5t-15.5 37.5t15.5 37t38.5 15z" />
    <glyph glyph-name="uni030A" unicode="&#x30a;" 
d="M-209 878q51 0 86.5 -35.5t34.5 -85.5q1 -50 -35 -85.5t-86 -35.5t-85.5 35.5t-35.5 85.5t35 85.5t86 35.5zM-209 827q-29 0 -49 -20t-20 -50t20 -50t49 -20t49 20t20 50t-20 50t-49 20z" />
    <glyph glyph-name="uni030B" unicode="&#x30b;" 
d="M-262 848l54 -26l-114 -186l-41 20zM-142 848l54 -26l-113 -186l-42 20z" />
    <glyph glyph-name="uni030C" unicode="&#x30c;" 
d="M-88 800l-165 -164l-164 164l46 47l118 -122l118 122z" />
    <glyph glyph-name="uni0312" unicode="&#x312;" 
d="M-134 720q39 -5 39 -40q0 -20 -14 -32t-34 -12q-18 0 -32 12t-15 32q-1 21 50 136h51z" />
    <glyph glyph-name="uni0326" unicode="&#x326;" 
d="M-88 -114q0 -24 -50 -136h-51l44 96q-38 5 -38 40q0 19 14 31.5t33 12.5t33 -11.5t15 -32.5z" />
    <glyph glyph-name="uni0327" unicode="&#x327;" 
d="M-187 -81q42 -6 70.5 -28t28.5 -62q0 -44 -37 -67t-100 -23q-41 0 -59 4v46q22 -5 51 -5q79 0 79 49q0 50 -101 56l47 111h60z" />
    <glyph glyph-name="uni0328" unicode="&#x328;" 
d="M-88 -257q-18 -4 -58 -4q-53 0 -85.5 23.5t-32.5 68.5q0 41 26.5 76.5t91.5 96.5l58 -4q-64 -67 -87 -98.5t-23 -60.5q0 -52 64 -52q26 0 46 5v-51z" />
    <glyph glyph-name="uni0335" unicode="&#x335;" 
d="M-87 341v-79h-294v79h294z" />
    <glyph glyph-name="uni0337" unicode="&#x337;" 
d="M-88 550l-394 -550h-65l394 550h65z" />
    <glyph glyph-name="uni0338" unicode="&#x338;" 
d="M-88 770l-375 -770h-84l374 770h85z" />
    <glyph glyph-name="uni0401" unicode="&#x401;" horiz-adv-x="576" 
d="M194 820q-23 0 -38.5 15t-15.5 37t15.5 37t38.5 15t38.5 -15t15.5 -37t-15.5 -37t-38.5 -15zM420 820q-23 0 -38.5 15t-15.5 37t15.5 37t38.5 15t39 -15t16 -37t-16 -37t-39 -15zM532 621h-361v-222h337v-79h-337v-241h361v-79h-444v700h444v-79z" />
    <glyph glyph-name="uni0404" unicode="&#x404;" horiz-adv-x="796" 
d="M419 68q83 0 147.5 42t96.5 113h89q-36 -107 -125.5 -170.5t-206.5 -63.5q-155 0 -257.5 103t-102.5 258t102.5 258t257.5 103q117 0 206.5 -63.5t125.5 -170.5h-89q-32 71 -96.5 113t-147.5 42q-107 0 -183 -67.5t-90 -173.5h322v-79h-322q13 -107 89 -175.5t184 -68.5z
" />
    <glyph glyph-name="uni0406" unicode="&#x406;" horiz-adv-x="259" 
d="M88 0v700h83v-700h-83z" />
    <glyph glyph-name="uni0407" unicode="&#x407;" horiz-adv-x="259" 
d="M16 924q23 0 38.5 -15t15.5 -37t-15.5 -37t-38.5 -15t-38.5 15t-15.5 37t15.5 37t38.5 15zM242 924q23 0 39 -15t16 -37t-16 -37t-39 -15t-38.5 15t-15.5 37t15.5 37t38.5 15zM88 0v700h83v-700h-83z" />
    <glyph glyph-name="uni040E" unicode="&#x40e;" horiz-adv-x="702" 
d="M525 951v-18q0 -69 -46.5 -110.5t-114.5 -41.5t-114 41.5t-46 110.5v18h68v-15q0 -41 25 -65t67 -24t67.5 24t25.5 65v15h68zM668 700l-396 -700h-94l145 254l-255 446h94l207 -357l206 357h93z" />
    <glyph glyph-name="uni0410" unicode="&#x410;" horiz-adv-x="735" 
d="M613 0l-83 210h-325l-83 -210h-88l280 700h107l280 -700h-88zM237 289h262l-131 332z" />
    <glyph glyph-name="uni0411" unicode="&#x411;" horiz-adv-x="656" 
d="M381 420q114 0 172.5 -56t58.5 -153t-61 -154t-175 -57h-288v700h83h392v-79h-392v-201h210zM373 79q77 0 116 36t39 97t-36.5 96t-113.5 35h-207v-264h202z" />
    <glyph glyph-name="uni0412" unicode="&#x412;" horiz-adv-x="655" 
d="M490 372q121 -34 121 -178q0 -91 -58.5 -142.5t-170.5 -51.5h-294v700h289q105 0 158.5 -46.5t53.5 -131.5q0 -109 -99 -150zM505 510q0 55 -32 83t-106 28h-196v-221h194q76 0 108 28t32 82zM381 79q147 0 147 121q0 61 -35 92.5t-114 31.5h-208v-245h210z" />
    <glyph glyph-name="uni0413" unicode="&#x413;" horiz-adv-x="542" 
d="M509 700v-79h-338v-621h-83v700h421z" />
    <glyph glyph-name="uni0414" unicode="&#x414;" horiz-adv-x="818" 
d="M684 79h100v-226h-84v147h-583v-147h-83v226h100q33 24 53 140l79 481h418v-621zM269 214q-17 -99 -41 -135h373v542h-265z" />
    <glyph glyph-name="uni0415" unicode="&#x415;" horiz-adv-x="576" 
d="M532 621h-361v-222h337v-79h-337v-241h361v-79h-444v700h444v-79z" />
    <glyph glyph-name="uni0416" unicode="&#x416;" horiz-adv-x="989" 
d="M955 0h-105l-314 339v-339h-83v339l-314 -339h-105l327 357l-315 343h104l303 -327v327h83v-327l303 327h104l-315 -343z" />
    <glyph glyph-name="uni0417" unicode="&#x417;" horiz-adv-x="630" 
d="M459 369q59 -18 93 -64t34 -109q0 -95 -70.5 -151t-188.5 -56q-114 0 -191 53.5t-92 157.5h84q29 -132 198 -132q83 0 129.5 36t46.5 98q0 56 -38.5 89.5t-121.5 33.5h-110v73h85q160 0 160 108q0 58 -44 92t-118 34q-73 0 -116 -28t-60 -95h-84q19 104 87.5 153
t174.5 49t175 -54.5t69 -140.5q0 -50 -27 -89.5t-75 -57.5z" />
    <glyph glyph-name="uni0418" unicode="&#x418;" horiz-adv-x="738" 
d="M554 700h102v-700h-83v293l7 296l-395 -589h-102v700h83v-293l-7 -296z" />
    <glyph glyph-name="uni0419" unicode="&#x419;" horiz-adv-x="738" 
d="M369 781q-68 0 -114 41.5t-46 110.5v18h68v-15q0 -41 25 -65t67 -24t67.5 24t25.5 65v15h68v-18q0 -69 -46.5 -110.5t-114.5 -41.5zM554 700h102v-700h-83v293l7 296l-395 -589h-102v700h83v-293l-7 -296z" />
    <glyph glyph-name="uni041A" unicode="&#x41a;" horiz-adv-x="641" 
d="M607 0h-107l-329 340v-340h-83v700h83v-328l318 328h106l-331 -343z" />
    <glyph glyph-name="uni041B" unicode="&#x41b;" horiz-adv-x="761" 
d="M252 700h421v-700h-83v621h-268l-67 -407q-20 -123 -59 -174t-107 -51q-34 0 -55 3v76q18 -2 39 -2q43 0 64 32t36 121z" />
    <glyph glyph-name="uni041C" unicode="&#x41c;" horiz-adv-x="819" 
d="M629 700h102v-700h-83v593l-237 -358h-8l-237 358v-593h-83v700h102l222 -334z" />
    <glyph glyph-name="uni041D" unicode="&#x41d;" horiz-adv-x="748" 
d="M577 700h83v-700h-83v322h-406v-322h-83v700h83v-299h406v299z" />
    <glyph glyph-name="uni041E" unicode="&#x41e;" horiz-adv-x="838" 
d="M420 711q153 0 256.5 -103.5t103.5 -257.5t-104 -257.5t-257 -103.5t-257 103.5t-104 257.5t104.5 257.5t257.5 103.5zM419 632q-117 0 -197 -81t-80 -201t80 -201t197 -81q118 0 197.5 80.5t79.5 201.5t-79.5 201.5t-197.5 80.5z" />
    <glyph glyph-name="uni041F" unicode="&#x41f;" horiz-adv-x="748" 
d="M660 700v-700h-83v621h-406v-621h-83v700h83h489z" />
    <glyph glyph-name="uni0420" unicode="&#x420;" horiz-adv-x="669" 
d="M369 700q114 0 178 -62.5t64 -161.5q0 -100 -64.5 -164t-177.5 -64h-198v-248h-83v700h281zM366 327q79 0 120 42t41 106t-41 105t-120 41h-195v-294h195z" />
    <glyph glyph-name="uni0421" unicode="&#x421;" horiz-adv-x="796" 
d="M420 -11q-155 0 -257.5 103t-102.5 258t102.5 258t257.5 103q117 0 206.5 -63.5t125.5 -170.5h-89q-32 71 -96.5 113t-147.5 42q-118 0 -196.5 -80.5t-78.5 -201.5t78.5 -201.5t196.5 -80.5q83 0 147.5 42t96.5 113h89q-36 -107 -125.5 -170.5t-206.5 -63.5z" />
    <glyph glyph-name="uni0422" unicode="&#x422;" horiz-adv-x="603" 
d="M569 700v-79h-226v-621h-84v621h-225v79h535z" />
    <glyph glyph-name="uni0423" unicode="&#x423;" horiz-adv-x="702" 
d="M668 700l-396 -700h-94l145 254l-255 446h94l207 -357l206 357h93z" />
    <glyph glyph-name="uni0424" unicode="&#x424;" horiz-adv-x="912" 
d="M573 621q121 0 201 -71.5t80 -192.5t-79.5 -192.5t-201.5 -71.5h-69v-93h-83v93h-70q-122 0 -201.5 71.5t-79.5 192.5t80 192.5t201 71.5h70v79h83v-79h69zM351 172h70v370h-70q-86 0 -141.5 -48.5t-55.5 -136.5t55 -136.5t142 -48.5zM573 172q87 0 142.5 48.5
t55.5 136.5t-55.5 136.5t-142.5 48.5h-69v-370h69z" />
    <glyph glyph-name="uni0425" unicode="&#x425;" horiz-adv-x="633" 
d="M599 0h-99l-184 290l-183 -290h-99l231 360l-221 340h99l174 -274l175 274h99l-223 -345z" />
    <glyph glyph-name="uni0426" unicode="&#x426;" horiz-adv-x="788" 
d="M634 79h120v-226h-83v147h-583v79v621h83v-621h380v621h83v-621z" />
    <glyph glyph-name="uni0427" unicode="&#x427;" horiz-adv-x="656" 
d="M485 700h83v-700h-83v268q-78 -36 -187 -36q-111 0 -175.5 57.5t-64.5 174.5v236h84v-227q0 -162 171 -162q114 0 172 36v353z" />
    <glyph glyph-name="uni0428" unicode="&#x428;" horiz-adv-x="1020" 
d="M849 700h83v-639v-61h-844v80v620h83v-620h297v620h83v-620h298v620z" />
    <glyph glyph-name="uni0429" unicode="&#x429;" horiz-adv-x="1086" 
d="M932 79h120v-226h-83v147h-881v79v621h83v-621h297v621h83v-621h298v621h83v-621z" />
    <glyph glyph-name="uni042A" unicode="&#x42a;" horiz-adv-x="750" 
d="M459 421q114 0 173.5 -56.5t59.5 -153.5t-61 -154t-175 -57h-283v621h-139v79h186h37v-279h202zM453 79q77 0 116 36t39 97t-37.5 96t-114.5 35h-199v-264h196z" />
    <glyph glyph-name="uni042B" unicode="&#x42b;" horiz-adv-x="863" 
d="M374 421q114 0 173.5 -56.5t59.5 -153.5t-61 -154t-175 -57h-283v700h83v-279h203zM703 700h83v-700h-83v700zM368 79q77 0 116 36t39 97t-37.5 96t-114.5 35h-200v-264h197z" />
    <glyph glyph-name="uni042C" unicode="&#x42c;" horiz-adv-x="664" 
d="M374 421q114 0 173.5 -56.5t59.5 -153.5t-61 -154t-175 -57h-283v700h83v-279h203zM368 79q77 0 116 36t39 97t-37.5 96t-114.5 35h-200v-264h197z" />
    <glyph glyph-name="uni042D" unicode="&#x42d;" horiz-adv-x="793" 
d="M379 711q154 0 254 -102.5t100 -258.5t-100 -258.5t-254 -102.5q-120 0 -211 64t-124 170h89q30 -71 96.5 -113t150.5 -42q108 0 182 68.5t86 176.5h-322v79h321q-14 106 -87.5 173t-180.5 67q-84 0 -150 -42t-96 -113h-89q33 106 123.5 170t211.5 64z" />
    <glyph glyph-name="uni042E" unicode="&#x42e;" horiz-adv-x="1082" 
d="M663 711q153 0 257 -103.5t104 -257.5t-104 -257.5t-257 -103.5q-142 0 -243.5 90.5t-115.5 229.5h-133v-309h-83v700h83v-311h132q14 140 115.5 231t244.5 91zM663 68q118 0 197.5 80.5t79.5 201.5t-79.5 201.5t-197.5 80.5t-197.5 -80.5t-80.5 -201.5
q1 -121 80.5 -201.5t197.5 -80.5z" />
    <glyph glyph-name="uni042F" unicode="&#x42f;" horiz-adv-x="663" 
d="M298 700h277v-700h-83v266h-145l-210 -266h-103l217 269q-91 13 -140.5 70.5t-49.5 144.5q0 97 62 156.5t175 59.5zM306 341h186v280h-186q-80 0 -120.5 -38.5t-40.5 -100.5q0 -63 40.5 -102t120.5 -39z" />
    <glyph glyph-name="uni0430" unicode="&#x430;" horiz-adv-x="678" 
d="M521 550h83v-550h-83v111q-33 -57 -87.5 -89.5t-124.5 -32.5q-112 0 -184.5 80.5t-72.5 205.5t72.5 205.5t184.5 80.5q70 0 125 -33t87 -91v113zM325 68q85 0 141 58.5t56 148.5t-56 148.5t-141 58.5q-84 0 -136.5 -58.5t-52.5 -148.5q0 -91 53 -149t136 -58z" />
    <glyph glyph-name="uni0431" unicode="&#x431;" horiz-adv-x="665" 
d="M359 541q110 0 182 -74.5t72 -193.5q0 -126 -79.5 -205t-199.5 -79q-121 0 -201 83t-81 236q0 119 22 203.5t60 136.5t102.5 82t136.5 40.5t175 10.5v-78q-108 0 -176.5 -11.5t-122 -43.5t-79 -90t-32.5 -150q30 64 90 98.5t131 34.5zM331 61q85 0 142 57.5t57 150.5
q0 89 -53.5 144.5t-136.5 55.5q-84 0 -144 -55.5t-60 -143.5q0 -94 55 -151.5t140 -57.5z" />
    <glyph glyph-name="uni0432" unicode="&#x432;" horiz-adv-x="579" 
d="M432 293q106 -29 106 -137q0 -73 -49 -114.5t-144 -41.5h-271v550h246q192 0 192 -140q0 -76 -80 -117zM428 396q0 43 -25 65t-89 22h-157v-168h155q116 0 116 81zM340 67q115 0 115 96q0 90 -117 90h-181v-186h183z" />
    <glyph glyph-name="uni0433" unicode="&#x433;" horiz-adv-x="458" 
d="M432 550v-78h-275v-472h-83v550h358z" />
    <glyph glyph-name="uni0434" unicode="&#x434;" horiz-adv-x="737" 
d="M611 78h100v-225h-83v147h-100h-419v-147h-83v225h94q45 31 67 173l48 299h376v-472zM213 78h315v394h-222l-36 -223q-20 -124 -57 -171z" />
    <glyph glyph-name="uni0435" unicode="&#x435;" horiz-adv-x="655" 
d="M333 561q128 0 204 -87t71 -224h-471q6 -85 61 -134t139 -49q123 0 172 96h86q-34 -85 -103 -129.5t-158 -44.5q-123 0 -202.5 79.5t-79.5 204.5t79 206.5t202 81.5zM333 483q-74 0 -125.5 -43t-66.5 -112h377q-14 70 -63 112.5t-122 42.5z" />
    <glyph glyph-name="uni0436" unicode="&#x436;" horiz-adv-x="941" 
d="M915 0h-109l-294 266v-266h-83v266l-294 -266h-109l315 289l-290 261h109l269 -246v246h83v-246l269 246h109l-290 -261z" />
    <glyph glyph-name="uni0437" unicode="&#x437;" horiz-adv-x="569" 
d="M433 291q48 -16 71.5 -52.5t23.5 -84.5q0 -75 -61.5 -120t-168.5 -45q-229 0 -265 189h84q27 -124 178 -124q75 0 112 29t37 77q0 92 -115 92h-111v66h88q120 0 120 81q0 43 -33.5 70.5t-105.5 27.5q-126 0 -153 -95h-84q17 75 77 117t162 42q104 0 162.5 -43.5
t58.5 -113.5q0 -81 -77 -113z" />
    <glyph glyph-name="uni0438" unicode="&#x438;" horiz-adv-x="644" 
d="M469 550h102v-550h-83v264l5 185l-317 -449h-102v550h83v-264l-5 -184z" />
    <glyph glyph-name="uni0439" unicode="&#x439;" horiz-adv-x="644" 
d="M322 647q-68 0 -114 41.5t-46 110.5v18h68v-16q0 -40 25.5 -64.5t66.5 -24.5q42 0 67.5 24.5t25.5 64.5v16h68v-18q0 -69 -46.5 -110.5t-114.5 -41.5zM469 550h102v-550h-83v264l5 185l-317 -449h-102v550h83v-264l-5 -184z" />
    <glyph glyph-name="uni043A" unicode="&#x43a;" horiz-adv-x="586" 
d="M560 0h-109l-294 265v-265h-83v550h83v-245l268 245h109l-289 -261z" />
    <glyph glyph-name="uni043B" unicode="&#x43b;" horiz-adv-x="658" 
d="M210 550h374v-550h-83v472h-221l-41 -258q-20 -121 -60.5 -173t-107.5 -52q-24 0 -45 3v76q18 -2 29 -2q43 0 65 32.5t37 120.5z" />
    <glyph glyph-name="uni043C" unicode="&#x43c;" horiz-adv-x="718" 
d="M542 550h102v-550h-83v264l5 194l-206 -291h-3l-206 291l6 -194v-264h-83v550h102l183 -256z" />
    <glyph glyph-name="uni043D" unicode="&#x43d;" horiz-adv-x="652" 
d="M495 550h83v-550h-83v242h-338v-242h-83v550h83v-229h338v229z" />
    <glyph glyph-name="uni043E" unicode="&#x43e;" horiz-adv-x="670" 
d="M335 561q119 0 201.5 -81.5t82.5 -204.5t-82 -204.5t-202 -81.5q-119 0 -201 82t-82 204t82.5 204t200.5 82zM335 482q-84 0 -141.5 -58.5t-57.5 -148.5t57.5 -148.5t141.5 -58.5q85 0 142.5 58.5t57.5 148.5t-58 148.5t-142 58.5z" />
    <glyph glyph-name="uni043F" unicode="&#x43f;" horiz-adv-x="646" 
d="M573 550v-550h-83v472h-333v-472h-83v550h83h416z" />
    <glyph glyph-name="uni0440" unicode="&#x440;" horiz-adv-x="683" 
d="M374 561q112 0 184.5 -80.5t72.5 -205.5t-73 -205.5t-185 -80.5q-70 0 -124.5 32.5t-86.5 89.5v-361h-83v800h83v-113q32 58 87 91t125 33zM358 68q83 0 136 58t53 149q0 90 -53 148.5t-136 58.5q-85 0 -141 -58.5t-56 -148.5t56 -148.5t141 -58.5z" />
    <glyph glyph-name="uni0441" unicode="&#x441;" horiz-adv-x="645" 
d="M336 -11q-121 0 -202.5 81.5t-81.5 204.5t81.5 204.5t202.5 81.5q98 0 172 -55t95 -148h-86q-19 58 -68 92t-113 34q-87 0 -143.5 -59t-56.5 -150t56.5 -150t143.5 -59q64 0 112.5 34t68.5 92h86q-22 -94 -96 -148.5t-171 -54.5z" />
    <glyph glyph-name="uni0442" unicode="&#x442;" horiz-adv-x="515" 
d="M489 550v-78h-190v-472h-83v472h-190v78h273h190z" />
    <glyph glyph-name="uni0443" unicode="&#x443;" horiz-adv-x="589" 
d="M474 550h89l-371 -800h-89l146 317l-223 483h89l178 -394z" />
    <glyph glyph-name="uni0444" unicode="&#x444;" horiz-adv-x="1125" 
d="M816 561q112 0 184.5 -80.5t72.5 -205.5t-72.5 -205.5t-184.5 -80.5q-69 0 -124 32.5t-88 88.5v-352h-83v352q-33 -56 -88 -88.5t-124 -32.5q-112 0 -184.5 80.5t-72.5 205.5t72.5 205.5t184.5 80.5q69 0 124.5 -33t87.5 -90v332h83v-332q32 57 87 90t125 33zM325 68
q85 0 141 58.5t56 148.5t-56 148.5t-141 58.5q-84 0 -136.5 -58.5t-52.5 -148.5q0 -91 53 -149t136 -58zM800 68q83 0 136 58t53 149q0 90 -53 148.5t-136 58.5q-85 0 -141 -58.5t-56 -148.5t56 -148.5t141 -58.5z" />
    <glyph glyph-name="uni0445" unicode="&#x445;" horiz-adv-x="554" 
d="M528 0h-100l-152 219l-150 -219h-100l200 283l-189 267h100l141 -205l139 205h101l-190 -268z" />
    <glyph glyph-name="uni0446" unicode="&#x446;" horiz-adv-x="685" 
d="M559 78h100v-225h-83v147h-100h-375h-27v550h83v-472h319v472h83v-472z" />
    <glyph glyph-name="uni0447" unicode="&#x447;" horiz-adv-x="587" 
d="M430 550h83v-550h-83v199q-72 -31 -162 -31q-214 0 -214 203v179h83v-160q0 -78 33.5 -112.5t111.5 -34.5q96 0 148 32v275z" />
    <glyph glyph-name="uni0448" unicode="&#x448;" horiz-adv-x="870" 
d="M714 550h83v-550h-83h-320h-282h-38v550h83v-472h237v472h83v-472h237v472z" />
    <glyph glyph-name="uni0449" unicode="&#x449;" horiz-adv-x="922" 
d="M797 78h100v-225h-83v147h-100h-320h-282h-38v550h83v-472h237v472h83v-472h237v472h83v-472z" />
    <glyph glyph-name="uni044A" unicode="&#x44a;" horiz-adv-x="659" 
d="M413 368q94 0 144 -45.5t50 -135.5t-52 -138.5t-145 -48.5h-257l-1 471h-126v79h209l1 -182h177zM408 79q115 0 115 108q0 51 -25 79t-88 28h-174v-215h172z" />
    <glyph glyph-name="uni044B" unicode="&#x44b;" horiz-adv-x="772" 
d="M334 368q94 0 144 -45.5t50 -135.5q0 -89 -52 -138t-146 -49h-256v550h83v-182h177zM615 550h83v-550h-83v550zM329 79q115 0 115 108q0 51 -25.5 79t-88.5 28h-173v-215h172z" />
    <glyph glyph-name="uni044C" unicode="&#x44c;" horiz-adv-x="580" 
d="M335 368q94 0 144 -45.5t50 -135.5q0 -89 -52 -138t-146 -49h-257v550h83v-182h178zM329 79q116 0 116 108q0 51 -25.5 79t-88.5 28h-174v-215h172z" />
    <glyph glyph-name="uni044D" unicode="&#x44d;" horiz-adv-x="646" 
d="M312 561q121 0 201.5 -81.5t80.5 -204.5t-80.5 -204.5t-201.5 -81.5q-98 0 -174 54.5t-96 148.5h86q18 -59 68.5 -93.5t115.5 -34.5q79 0 133 50t64 130h-235v66h234q-11 79 -64.5 127.5t-131.5 48.5q-66 0 -116 -34.5t-68 -93.5h-86q21 93 96 148t174 55z" />
    <glyph glyph-name="uni044E" unicode="&#x44e;" horiz-adv-x="893" 
d="M558 561q118 0 200.5 -82t82.5 -204q0 -123 -82 -204.5t-201 -81.5q-109 0 -188.5 69t-92.5 177h-120v-235h-83v550h83v-236h120q13 108 92.5 177.5t188.5 69.5zM558 68q84 0 141.5 58.5t57.5 148.5t-57.5 148.5t-141.5 58.5t-142 -58.5t-58 -148.5t58 -148.5t142 -58.5z
" />
    <glyph glyph-name="uni044F" unicode="&#x44f;" horiz-adv-x="590" 
d="M248 550h268v-550h-83v208h-144l-160 -208h-103l172 213q-68 12 -107 51.5t-39 105.5q0 87 51 133.5t145 46.5zM255 278h178v197h-182q-115 0 -115 -103q0 -94 119 -94z" />
    <glyph glyph-name="uni0451" unicode="&#x451;" horiz-adv-x="655" 
d="M214 684q-23 0 -38.5 15t-15.5 38q0 22 15.5 37t38.5 15t38.5 -15t15.5 -37q0 -23 -15.5 -38t-38.5 -15zM440 684q-23 0 -38.5 15.5t-15.5 37.5t15.5 37t38.5 15t39 -15t16 -37t-16 -37.5t-39 -15.5zM333 561q128 0 204 -87t71 -224h-471q6 -85 61 -134t139 -49
q123 0 172 96h86q-34 -85 -103 -129.5t-158 -44.5q-123 0 -202.5 79.5t-79.5 204.5t79 206.5t202 81.5zM333 483q-74 0 -125.5 -43t-66.5 -112h377q-14 70 -63 112.5t-122 42.5z" />
    <glyph glyph-name="uni0454" unicode="&#x454;" horiz-adv-x="645" 
d="M336 64q64 0 113 34.5t68 93.5h86q-22 -94 -96 -148.5t-171 -54.5q-121 0 -202.5 81.5t-81.5 204.5t81.5 204.5t202.5 81.5q98 0 172 -55t95 -148h-86q-19 60 -68 94t-113 34q-78 0 -132.5 -49t-65.5 -127h234v-66h-234q10 -80 64.5 -130t133.5 -50z" />
    <glyph glyph-name="uni0456" unicode="&#x456;" horiz-adv-x="230" 
d="M116 792q25 0 41.5 -16t16.5 -39q0 -24 -16.5 -40t-41.5 -16t-41.5 16t-16.5 40q0 23 16.5 39t41.5 16zM74 0v550h83v-550h-83z" />
    <glyph glyph-name="uni0457" unicode="&#x457;" horiz-adv-x="230" 
d="M2 789q23 0 38.5 -15t15.5 -37q0 -23 -15.5 -38t-38.5 -15t-38.5 15t-15.5 38q0 22 15.5 37t38.5 15zM228 789q23 0 39 -15t16 -37t-16 -37.5t-39 -15.5t-38.5 15.5t-15.5 37.5t15.5 37t38.5 15zM74 0v550h83v-550h-83z" />
    <glyph glyph-name="uni045E" unicode="&#x45e;" horiz-adv-x="589" 
d="M294 647q-68 0 -114 41.5t-46 110.5v18h68v-16q0 -40 25.5 -64.5t66.5 -24.5q42 0 67.5 24.5t25.5 64.5v16h68v-18q0 -69 -46.5 -110.5t-114.5 -41.5zM474 550h89l-371 -800h-89l146 317l-223 483h89l178 -394z" />
    <glyph glyph-name="uni0490" unicode="&#x490;" horiz-adv-x="542" 
d="M509 770v-149h-338v-621h-83v700h337v70h84z" />
    <glyph glyph-name="uni0491" unicode="&#x491;" horiz-adv-x="458" 
d="M432 624v-152h-275v-472h-83v550h275v74h83z" />
    <glyph glyph-name="Wgrave" unicode="&#x1e80;" horiz-adv-x="997" 
d="M607 810l-41 -40l-175 154l51 51zM877 700h86l-195 -700h-105l-71 253l-86 347h-15l-86 -347l-70 -253h-106l-195 700h86l93 -335l70 -280l69 280l93 335h107l93 -335l70 -281l70 281z" />
    <glyph glyph-name="wgrave" unicode="&#x1e81;" horiz-adv-x="842" 
d="M529 675l-41 -40l-175 153l51 52zM733 550h83l-162 -550h-100l-54 185l-71 279h-15l-71 -279l-55 -185h-100l-162 550h83l51 -173l80 -291l79 291l51 173h102l51 -173l79 -290l80 290z" />
    <glyph glyph-name="Wacute" unicode="&#x1e82;" horiz-adv-x="997" 
d="M607 924l-176 -154l-40 40l164 165zM877 700h86l-195 -700h-105l-71 253l-86 347h-15l-86 -347l-70 -253h-106l-195 700h86l93 -335l70 -280l69 280l93 335h107l93 -335l70 -281l70 281z" />
    <glyph glyph-name="wacute" unicode="&#x1e83;" horiz-adv-x="842" 
d="M529 789l-176 -153l-40 39l164 166zM733 550h83l-162 -550h-100l-54 185l-71 279h-15l-71 -279l-55 -185h-100l-162 550h83l51 -173l80 -291l79 291l51 173h102l51 -173l79 -290l80 290z" />
    <glyph glyph-name="Wdieresis" unicode="&#x1e84;" horiz-adv-x="997" 
d="M385 820q-23 0 -38.5 15t-15.5 37t15.5 37t38.5 15t38.5 -15t15.5 -37t-15.5 -37t-38.5 -15zM611 820q-23 0 -38.5 15t-15.5 37t15.5 37t38.5 15t39 -15t16 -37t-16 -37t-39 -15zM877 700h86l-195 -700h-105l-71 253l-86 347h-15l-86 -347l-70 -253h-106l-195 700h86
l93 -335l70 -280l69 280l93 335h107l93 -335l70 -281l70 281z" />
    <glyph glyph-name="wdieresis" unicode="&#x1e85;" horiz-adv-x="842" 
d="M308 684q-23 0 -38.5 15t-15.5 38q0 22 15.5 37t38.5 15t38.5 -15t15.5 -37q0 -23 -15.5 -38t-38.5 -15zM534 684q-23 0 -38.5 15.5t-15.5 37.5t15.5 37t38.5 15t39 -15t16 -37t-16 -37.5t-39 -15.5zM733 550h83l-162 -550h-100l-54 185l-71 279h-15l-71 -279l-55 -185
h-100l-162 550h83l51 -173l80 -291l79 291l51 173h102l51 -173l79 -290l80 290z" />
    <glyph glyph-name="Ygrave" unicode="&#x1ef2;" horiz-adv-x="668" 
d="M442 810l-41 -40l-175 154l51 51zM635 700l-259 -449v-251h-83v249l-259 451h94l206 -358l206 358h95z" />
    <glyph glyph-name="ygrave" unicode="&#x1ef3;" horiz-adv-x="589" 
d="M402 675l-41 -40l-175 153l51 52zM474 550h89l-371 -800h-89l146 317l-223 483h89l178 -394z" />
    <glyph glyph-name="uni2009" unicode="&#x2009;" horiz-adv-x="150" 
 />
    <glyph glyph-name="endash" unicode="&#x2013;" horiz-adv-x="642" 
d="M554 341v-79h-466v79h466z" />
    <glyph glyph-name="emdash" unicode="&#x2014;" horiz-adv-x="755" 
d="M668 341v-79h-580v79h580z" />
    <glyph glyph-name="quoteleft" unicode="&#x2018;" horiz-adv-x="318" 
d="M163 537q18 -5 29.5 -19t11.5 -34q0 -25 -16.5 -41t-41.5 -16q-22 0 -40 14t-18 45q-2 32 83 214h59z" />
    <glyph glyph-name="quoteright" unicode="&#x2019;" horiz-adv-x="318" 
d="M230 652q2 -30 -83 -214h-59l66 163q-40 10 -40 53q0 25 16.5 41t41.5 16q22 0 39.5 -14t18.5 -45z" />
    <glyph glyph-name="quotesinglbase" unicode="&#x201a;" horiz-adv-x="318" 
d="M230 42q2 -30 -83 -214h-59l66 163q-40 10 -40 53q0 25 16.5 41t41.5 16q22 0 39.5 -14t18.5 -45z" />
    <glyph glyph-name="quotedblleft" unicode="&#x201c;" horiz-adv-x="509" 
d="M171 700h59l-67 -163q18 -5 29.5 -19t11.5 -34q0 -25 -16.5 -41t-41.5 -16q-22 0 -40 14t-18 45q-2 32 83 214zM355 537q18 -5 29 -19t11 -34q0 -25 -16.5 -41t-41.5 -16q-22 0 -40 14t-18 45q-2 32 83 214h59z" />
    <glyph glyph-name="quotedblright" unicode="&#x201d;" horiz-adv-x="509" 
d="M172 711q22 0 39.5 -14t18.5 -45q2 -30 -83 -214h-59l66 163q-40 10 -40 53q0 25 16.5 41t41.5 16zM421 652q2 -32 -83 -214h-59l66 163q-40 10 -40 53q0 25 16.5 41t41.5 16q22 0 39.5 -14t18.5 -45z" />
    <glyph glyph-name="quotedblbase" unicode="&#x201e;" horiz-adv-x="509" 
d="M172 101q22 0 39.5 -14t18.5 -45q2 -30 -83 -214h-59l66 163q-40 10 -40 53q0 25 16.5 41t41.5 16zM421 42q2 -32 -83 -214h-59l66 163q-18 5 -29 19t-11 34q0 25 16.5 41t41.5 16q22 0 39.5 -14t18.5 -45z" />
    <glyph glyph-name="dagger" unicode="&#x2020;" horiz-adv-x="603" 
d="M343 700v-211h172v-79h-172v-511h-83v511h-172v79h172v211h83z" />
    <glyph glyph-name="daggerdbl" unicode="&#x2021;" horiz-adv-x="603" 
d="M343 700v-190h172v-79h-172v-210h172v-79h-172v-243h-83v243h-172v79h172v210h-172v79h172v190h83z" />
    <glyph glyph-name="bullet" unicode="&#x2022;" horiz-adv-x="463" 
d="M232 427q61 0 102.5 -40.5t41.5 -100.5t-41.5 -100.5t-102.5 -40.5t-102.5 40.5t-41.5 100.5t41.5 100.5t102.5 40.5z" />
    <glyph glyph-name="ellipsis" unicode="&#x2026;" horiz-adv-x="756" 
d="M146 101q25 0 41.5 -16t16.5 -40t-16.5 -40t-41.5 -16t-41.5 16t-16.5 40t16.5 40t41.5 16zM378 101q25 0 41.5 -16t16.5 -40t-16.5 -40t-41.5 -16t-41.5 16t-16.5 40t16.5 40t41.5 16zM611 101q25 0 41.5 -16t16.5 -40t-16.5 -40t-41.5 -16t-41.5 16t-16.5 40t16.5 40
t41.5 16z" />
    <glyph glyph-name="perthousand" unicode="&#x2030;" horiz-adv-x="1490" 
d="M270 290q-83 0 -132.5 54.5t-49.5 156.5q0 101 49.5 155.5t132.5 54.5t133 -54.5t50 -155.5q0 -102 -50 -156.5t-133 -54.5zM774 700l-400 -700h-82l400 700h82zM270 357q109 0 109 144t-109 144t-109 -144t109 -144zM795 410q83 0 133 -54.5t50 -156.5
q0 -101 -50 -155.5t-133 -54.5t-132.5 54.5t-49.5 155.5q0 102 49.5 156.5t132.5 54.5zM1219 410q83 0 133 -54.5t50 -156.5q0 -101 -50 -155.5t-133 -54.5t-132.5 54.5t-49.5 155.5q0 102 49.5 156.5t132.5 54.5zM795 343q-109 0 -109 -144t109 -144t109 144t-109 144z
M1219 343q-109 0 -109 -144t109 -144q110 0 110 144t-110 144z" />
    <glyph glyph-name="guilsinglleft" unicode="&#x2039;" horiz-adv-x="432" 
d="M287 80l-199 199l199 199l57 -57l-143 -142l143 -142z" />
    <glyph glyph-name="guilsinglright" unicode="&#x203a;" horiz-adv-x="432" 
d="M145 80l-57 57l142 142l-142 142l57 57l199 -199z" />
    <glyph glyph-name="fraction" unicode="&#x2044;" horiz-adv-x="189" 
d="M-146 0l400 700h81l-400 -700h-81z" />
    <glyph glyph-name="uni2070" unicode="&#x2070;" horiz-adv-x="437" 
d="M219 360q-83 0 -133 54.5t-50 156.5q0 101 50 155.5t133 54.5t132.5 -54.5t49.5 -155.5q0 -102 -49.5 -156.5t-132.5 -54.5zM219 427q109 0 109 144t-109 144t-109 -144t109 -144z" />
    <glyph glyph-name="uni2074" unicode="&#x2074;" horiz-adv-x="433" 
d="M397 516v-60h-73v-84h-73v84h-215v60l196 254h92v-254h73zM99 516h152v200z" />
    <glyph glyph-name="uni2075" unicode="&#x2075;" horiz-adv-x="406" 
d="M224 636q62 0 104 -36.5t42 -97.5t-42.5 -101.5t-117.5 -40.5q-70 0 -116.5 36t-57.5 95h74q7 -35 34 -55t64 -20q41 0 65 24t24 61t-23 61.5t-64 24.5q-53 0 -89 -44h-68l48 227h247v-58h-201l-24 -112q41 36 101 36z" />
    <glyph glyph-name="uni2076" unicode="&#x2076;" horiz-adv-x="395" 
d="M217 634q64 0 103 -39t39 -94q0 -58 -43 -99.5t-117 -41.5q-76 0 -119.5 43.5t-43.5 104.5q0 47 30 94t107 139l25 29h78l-127 -149q30 13 68 13zM197 419q42 0 66 23.5t24 59.5t-23.5 59t-66.5 23q-40 0 -64.5 -23t-24.5 -59q0 -35 24 -59t65 -24z" />
    <glyph glyph-name="uni2077" unicode="&#x2077;" horiz-adv-x="363" 
d="M36 770h291v-49l-172 -349h-69l168 338h-218v60z" />
    <glyph glyph-name="uni2078" unicode="&#x2078;" horiz-adv-x="409" 
d="M297 581q33 -11 54.5 -38t21.5 -64q0 -53 -43 -86t-125 -33t-125.5 33t-43.5 86q0 37 21.5 64t54.5 38q-63 28 -63 88q0 50 42 81t114 31t113.5 -31t41.5 -81q0 -60 -63 -88zM205 725q-37 0 -59.5 -17t-22.5 -46t21.5 -45.5t60.5 -16.5q38 0 59.5 16.5t21.5 45.5
t-22.5 46t-58.5 17zM205 416q45 0 70 18.5t25 50.5q0 65 -95 65t-95 -65q0 -32 25 -50.5t70 -18.5z" />
    <glyph glyph-name="uni2079" unicode="&#x2079;" horiz-adv-x="395" 
d="M197 781q76 0 119 -43.5t43 -103.5q0 -49 -31.5 -97.5t-116.5 -148.5l-14 -16h-77l126 148q-34 -13 -68 -13q-64 0 -103 39t-39 94q0 58 43 99.5t118 41.5zM198 558q40 0 64.5 22.5t24.5 58.5t-24 60t-65 24q-42 0 -66 -24t-24 -60q0 -35 23.5 -58t66.5 -23z" />
    <glyph glyph-name="Euro" unicode="&#x20ac;" horiz-adv-x="900" 
d="M524 68q82 0 146.5 42t96.5 113h90q-36 -107 -125.5 -170.5t-206.5 -63.5q-127 0 -221 70.5t-126 186.5h-130v65h118q-2 26 -2 39q0 12 2 38h-118v64h130q31 116 125.5 187.5t221.5 71.5q117 0 206.5 -63.5t125.5 -170.5h-90q-32 71 -96.5 113t-146.5 42
q-90 0 -159.5 -49t-99.5 -131h300v-64h-315q-2 -24 -2 -38q0 -20 3 -39h314v-65h-299q30 -81 99 -129.5t159 -48.5z" />
    <glyph glyph-name="uni2116" unicode="&#x2116;" horiz-adv-x="1246" 
d="M952 302q-86 0 -146 59.5t-60 144.5q0 86 60 145.5t146 59.5t146 -59.5t60 -145.5t-60 -145t-146 -59zM578 407v293h84v-700h-103l-395 589l7 -296v-293h-83v700h103l394 -589zM952 641q-56 0 -95 -39.5t-39 -95.5t39 -95.5t95 -39.5t95 39.5t39 95.5t-39 95.5t-95 39.5z
M758 164v64h389v-64h-389zM758 0v65h389v-65h-389z" />
    <glyph glyph-name="trademark" unicode="&#x2122;" horiz-adv-x="827" 
d="M88 720v50h254v-50h-100v-256h-54v256h-100zM678 770h61v-306h-53v235l-113 -155h-3l-114 155v-235h-54v306h62l107 -146z" />
    <glyph glyph-name="oneeighth" unicode="&#x215b;" horiz-adv-x="910" 
d="M233 302h-73v321l-124 -44v67l159 54h38v-398zM565 700h81l-400 -700h-81zM796 210q33 -11 55 -38t22 -64q0 -53 -43 -86t-125 -33t-125.5 33t-43.5 86q0 37 22 64t55 38q-64 26 -64 87q0 50 42 81.5t114 31.5q71 0 113 -31.5t42 -81.5q0 -61 -64 -87zM705 354
q-37 0 -59.5 -17.5t-22.5 -46.5q0 -28 22 -45t60 -17t59.5 17t21.5 45q0 29 -22.5 46.5t-58.5 17.5zM705 45q45 0 70 18t25 50q0 31 -24 48.5t-71 17.5q-95 0 -95 -66q0 -32 25 -50t70 -18z" />
    <glyph glyph-name="threeeighths" unicode="&#x215c;" horiz-adv-x="1011" 
d="M377 414q0 -52 -42 -88t-119 -36q-74 0 -122.5 35.5t-57.5 98.5h74q16 -78 103 -78q43 0 66.5 19.5t23.5 52.5q0 31 -17 47.5t-46 16.5h-75v50h55q29 0 49.5 15t20.5 43q0 30 -22 47.5t-59 17.5q-36 0 -60.5 -19t-30.5 -58h-74q7 62 52 97.5t115 35.5q71 0 111.5 -34.5
t40.5 -85.5q0 -50 -51 -76q65 -29 65 -101zM667 700h81l-400 -700h-81zM898 210q33 -11 55 -38t22 -64q0 -53 -43 -86t-125 -33t-125.5 33t-43.5 86q0 37 22 64t55 38q-64 26 -64 87q0 50 42 81.5t114 31.5q71 0 113 -31.5t42 -81.5q0 -61 -64 -87zM807 354
q-37 0 -59.5 -17.5t-22.5 -46.5q0 -28 22 -45t60 -17t59.5 17t21.5 45q0 29 -22.5 46.5t-58.5 17.5zM807 45q45 0 70 18t25 50q0 31 -24 48.5t-71 17.5q-95 0 -95 -66q0 -32 25 -50t70 -18z" />
    <glyph glyph-name="fiveeighths" unicode="&#x215d;" horiz-adv-x="1004" 
d="M370 432q0 -61 -42.5 -101.5t-117.5 -40.5q-70 0 -116.5 36t-57.5 95h74q7 -35 34 -55t64 -20q41 0 65 24t24 61t-23 61.5t-64 24.5q-53 0 -89 -44h-68l48 227h247v-58h-201l-24 -112q41 36 101 36q62 0 104 -36.5t42 -97.5zM660 700h81l-400 -700h-81zM891 210
q33 -11 55 -38t22 -64q0 -53 -43 -86t-125 -33t-125.5 33t-43.5 86q0 37 22 64t55 38q-64 26 -64 87q0 50 42 81.5t114 31.5q71 0 113 -31.5t42 -81.5q0 -61 -64 -87zM800 354q-37 0 -59.5 -17.5t-22.5 -46.5q0 -28 22 -45t60 -17t59.5 17t21.5 45q0 29 -22.5 46.5
t-58.5 17.5zM800 45q45 0 70 18t25 50q0 31 -24 48.5t-71 17.5q-95 0 -95 -66q0 -32 25 -50t70 -18z" />
    <glyph glyph-name="seveneighths" unicode="&#x215e;" horiz-adv-x="896" 
d="M155 302h-69l168 338h-218v60h291v-49zM551 700h81l-400 -700h-81zM783 210q33 -11 55 -38t22 -64q0 -53 -43 -86t-125 -33t-125.5 33t-43.5 86q0 37 22 64t55 38q-64 26 -64 87q0 50 42 81.5t114 31.5q71 0 113 -31.5t42 -81.5q0 -61 -64 -87zM692 354
q-37 0 -59.5 -17.5t-22.5 -46.5q0 -28 22 -45t60 -17t59.5 17t21.5 45q0 29 -22.5 46.5t-58.5 17.5zM692 45q45 0 70 18t25 50q0 31 -24 48.5t-71 17.5q-95 0 -95 -66q0 -32 25 -50t70 -18z" />
    <glyph glyph-name="arrowleft" unicode="&#x2190;" horiz-adv-x="928" 
d="M325 131l-237 238l237 238l59 -59l-142 -137h598v-84h-597l140 -137z" />
    <glyph glyph-name="arrowup" unicode="&#x2191;" horiz-adv-x="651" 
d="M283 0v556l-137 -140l-58 58l237 237l238 -237l-58 -59l-138 142v-557h-84z" />
    <glyph glyph-name="arrowright" unicode="&#x2192;" horiz-adv-x="928" 
d="M603 124l-58 59l141 137h-598v84h597l-140 137l58 58l237 -237z" />
    <glyph glyph-name="arrowdown" unicode="&#x2193;" horiz-adv-x="651" 
d="M326 -9l-238 238l58 58l138 -141v598h83v-598l138 141l58 -58z" />
    <glyph glyph-name="arrowboth" unicode="&#x2194;" horiz-adv-x="1143" 
d="M818 131l-58 59l140 137h-657l140 -137l-58 -59l-237 238l237 238l59 -59l-142 -137h659l-142 137l59 59l237 -238z" />
    <glyph glyph-name="arrowupdn" unicode="&#x2195;" horiz-adv-x="651" 
d="M326 -88l-238 237l58 59l138 -141v565l-138 -142l-58 58l238 238l237 -238l-58 -58l-138 141v-564l138 140l58 -58z" />
    <glyph glyph-name="uni2196" unicode="&#x2196;" horiz-adv-x="737" 
d="M590 81l-422 423l2 -197h-82v335l336 1v-83l-198 3l423 -423z" />
    <glyph glyph-name="uni2197" unicode="&#x2197;" horiz-adv-x="738" 
d="M146 69l-58 59l423 423l-197 -3v82h335l1 -336h-83l3 198z" />
    <glyph glyph-name="uni2198" unicode="&#x2198;" horiz-adv-x="737" 
d="M313 95v83l198 -3l-423 424l59 59l422 -423l-2 196l82 1v-336z" />
    <glyph glyph-name="uni2199" unicode="&#x2199;" horiz-adv-x="738" 
d="M88 90v336h83l-3 -198l423 423l59 -59l-423 -423l197 3v-82h-336z" />
    <glyph glyph-name="partialdiff" unicode="&#x2202;" horiz-adv-x="690" 
d="M408 711q126 0 170 -105.5t6 -346.5q-21 -127 -97 -198.5t-189 -71.5q-108 0 -166.5 73t-40.5 186q17 108 88 165.5t168 57.5q128 0 171 -96q15 145 -20.5 203.5t-110.5 58.5q-83 0 -176 -45l-15 67q103 52 212 52zM497 243q10 67 -26.5 115t-110.5 48
q-72 0 -122.5 -42.5t-62.5 -120.5t24.5 -126.5t110.5 -48.5q72 0 123 48t64 127z" />
    <glyph glyph-name="emptyset" unicode="&#x2205;" horiz-adv-x="817" 
d="M729 555l-99 -99q62 -76 62 -181q0 -123 -82 -204.5t-201 -81.5q-106 0 -182 64l-99 -99l-40 41l99 99q-62 76 -62 181q0 122 83 204t201 82q105 0 181 -64l99 99zM209 275q0 -68 36 -122l288 287q-53 42 -124 42q-84 0 -142 -58.5t-58 -148.5zM608 275q0 70 -36 122
l-287 -287q53 -42 124 -42q84 0 141.5 58.5t57.5 148.5z" />
    <glyph glyph-name="product" unicode="&#x220f;" horiz-adv-x="841" 
d="M753 700v-79h-96v-621h-83v621h-307v-621h-83v621h-96v79h665z" />
    <glyph glyph-name="summation" unicode="&#x2211;" horiz-adv-x="643" 
d="M556 700v-79h-352l244 -259v-24l-244 -259h352v-79h-468v76l258 274l-258 275v75h468z" />
    <glyph glyph-name="minus" unicode="&#x2212;" horiz-adv-x="677" 
d="M589 341v-79h-501v79h501z" />
    <glyph glyph-name="radical" unicode="&#x221a;" horiz-adv-x="837" 
d="M663 700h86l-261 -700h-103l-177 471h-120v79h179l170 -456z" />
    <glyph glyph-name="infinity" unicode="&#x221e;" horiz-adv-x="898" 
d="M637 456q76 0 124.5 -49.5t48.5 -126.5t-49 -126t-125 -49q-104 0 -187 115q-83 -115 -187 -115q-77 0 -125.5 49t-48.5 126t48.5 126.5t123.5 49.5q105 0 189 -115q84 114 188 115zM261 173q47 0 81.5 27.5t66.5 79.5q-35 53 -68.5 80.5t-80.5 27.5q-46 0 -74 -30
t-28 -78t28 -77.5t75 -29.5zM637 173q46 0 74 29.5t28 77.5t-27.5 78t-74.5 30q-46 -1 -79.5 -28.5t-67.5 -79.5q35 -53 68 -80t79 -27z" />
    <glyph glyph-name="integral" unicode="&#x222b;" horiz-adv-x="743" 
d="M521 781q66 0 100 -37.5t34 -102.5h-60q0 28 -16.5 47t-51.5 19q-41 0 -59 -28t-23 -83l-64 -666q-16 -191 -160 -191q-66 0 -99.5 37t-33.5 103h60q0 -28 16 -47t51 -19q41 0 59 28t24 83l63 666q17 191 160 191z" />
    <glyph glyph-name="approxequal" unicode="&#x2248;" horiz-adv-x="622" 
d="M423 327q-21 0 -44 9t-34.5 16.5l-40.5 27.5l-24.5 17t-25 17t-19.5 9t-25 5q-60 0 -60 -88h-62q0 73 29.5 111.5t81.5 38.5q21 0 44 -9t34.5 -16.5l40.5 -27.5q8 -5 25 -17l24.5 -17t20 -9.5t24.5 -4.5q60 0 60 88h63q0 -73 -30 -111.5t-82 -38.5zM423 138q-21 0 -44 9
t-34.5 16.5l-40.5 27.5l-24.5 17t-25 16.5t-20 9t-24.5 4.5q-60 0 -60 -87h-62q0 73 29.5 111t81.5 38q21 0 44 -9t34.5 -16.5l40.5 -27.5l25.5 -17l24.5 -16t20 -9.5t24 -4.5q60 0 60 87h63q0 -73 -30 -111t-82 -38z" />
    <glyph glyph-name="notequal" unicode="&#x2260;" horiz-adv-x="677" 
d="M460 607l-45 -168h174v-77h-194l-31 -116h225v-77h-245l-45 -169h-84l45 169h-172v77h192l31 116h-223v77h243l44 168h85z" />
    <glyph glyph-name="lessequal" unicode="&#x2264;" horiz-adv-x="677" 
d="M589 514v-70l-357 -82l357 -83v-70l-501 123v59zM589 144v-65h-501v65h501z" />
    <glyph glyph-name="greaterequal" unicode="&#x2265;" horiz-adv-x="677" 
d="M88 514l501 -123v-59l-501 -123v70l357 83l-357 82v70zM589 144v-65h-501v65h501z" />
    <glyph glyph-name="lozenge" unicode="&#x25ca;" horiz-adv-x="785" 
d="M393 598l304 -304l-304 -305l-305 305zM393 482l-188 -188l188 -188l188 188z" />
    <glyph glyph-name="A.001" horiz-adv-x="735" 
d="M613 0l-83 210h-325l-83 -210h-88l280 700h107l280 -700h-88zM237 289h262l-131 332z" />
    <glyph glyph-name="zero.subs" horiz-adv-x="437" 
d="M219 360q-83 0 -133 54.5t-50 156.5q0 101 50 155.5t133 54.5t132.5 -54.5t49.5 -155.5q0 -102 -49.5 -156.5t-132.5 -54.5zM219 427q109 0 109 144t-109 144t-109 -144t109 -144z" />
    <glyph glyph-name="one.subs" horiz-adv-x="269" 
d="M195 770h38v-398h-73v321l-124 -44v67z" />
    <glyph glyph-name="two.subs" horiz-adv-x="416" 
d="M139 432h241v-60h-344v52l145 109q66 49 87 72.5t21 52.5q0 30 -21 48.5t-58 18.5q-83 0 -94 -87h-73q7 65 51 104t118 39q72 0 111.5 -36.5t39.5 -88.5q0 -45 -31.5 -80t-103.5 -83z" />
    <glyph glyph-name="three.subs" horiz-adv-x="413" 
d="M312 585q29 -13 47 -39.5t18 -61.5q0 -52 -42 -88t-119 -36q-74 0 -122.5 35.5t-57.5 98.5h74q16 -78 103 -78q43 0 66.5 19.5t23.5 52.5q0 31 -17 47.5t-46 16.5h-75v50h55q29 0 49.5 15t20.5 43q0 30 -22 47.5t-59 17.5q-36 0 -60.5 -19t-30.5 -58h-74q7 62 52 97.5
t115 35.5q71 0 111.5 -34.5t40.5 -85.5q0 -50 -51 -76z" />
    <glyph glyph-name="four.subs" horiz-adv-x="433" 
d="M397 516v-60h-73v-84h-73v84h-215v60l196 254h92v-254h73zM99 516h152v199z" />
    <glyph glyph-name="five.subs" horiz-adv-x="406" 
d="M224 636q62 0 104 -36.5t42 -97.5t-42.5 -101.5t-117.5 -40.5q-70 0 -116.5 36t-57.5 95h74q7 -35 34 -55t64 -20q41 0 65 24t24 61t-23 61.5t-64 24.5q-53 0 -89 -44h-68l48 227h247v-58h-202l-23 -112q43 36 101 36z" />
    <glyph glyph-name="six.subs" horiz-adv-x="395" 
d="M217 634q64 0 103 -39t39 -94q0 -58 -43 -99.5t-117 -41.5q-76 0 -119.5 43.5t-43.5 104.5q0 47 30 94t107 139l25 29h78l-128 -149q36 13 69 13zM197 419q42 0 66 23.5t24 59.5t-23.5 59t-66.5 23q-40 0 -64.5 -23t-24.5 -59q0 -35 24 -59t65 -24z" />
    <glyph glyph-name="seven.subs" horiz-adv-x="363" 
d="M36 770h291v-49l-172 -349h-69l168 338h-218v60z" />
    <glyph glyph-name="eight.subs" horiz-adv-x="409" 
d="M296 582q33 -11 55 -38.5t22 -64.5q0 -53 -43 -86t-125 -33t-125.5 33t-43.5 86q0 37 22 64.5t55 38.5q-64 26 -64 87q0 50 42 81t114 31t113.5 -31t41.5 -81q0 -61 -64 -87zM205 725q-37 0 -59.5 -17t-22.5 -46t21.5 -45.5t60.5 -16.5q38 0 59.5 16.5t21.5 45.5
t-22.5 46t-58.5 17zM205 416q45 0 70 18.5t25 50.5q0 65 -95 65t-95 -65q0 -32 25 -50.5t70 -18.5z" />
    <glyph glyph-name="nine.subs" horiz-adv-x="395" 
d="M197 781q76 0 119 -43.5t43 -103.5q0 -49 -31.5 -97.5t-116.5 -148.5l-14 -16h-77l125 148q-33 -13 -67 -13q-64 0 -103 39t-39 94q0 58 43 99.5t118 41.5zM198 558q40 0 64.5 22.5t24.5 58.5t-24 60t-65 24q-42 0 -66 -24t-24 -60q0 -35 23.5 -58t66.5 -23z" />
    <glyph glyph-name="zero.dnom" horiz-adv-x="437" 
d="M219 -11q-83 0 -133 54.5t-50 155.5q0 102 50 156.5t133 54.5t132.5 -54.5t49.5 -156.5q0 -101 -49.5 -155.5t-132.5 -54.5zM219 55q109 0 109 144t-109 144t-109 -144t109 -144z" />
    <glyph glyph-name="one.dnom" horiz-adv-x="269" 
d="M195 398h38v-398h-73v321l-124 -44v67z" />
    <glyph glyph-name="two.dnom" horiz-adv-x="416" 
d="M138 60h242v-60h-344v53l145 109q65 48 86.5 71.5t21.5 53.5q0 29 -21 48t-58 19q-82 0 -94 -88h-73q7 66 51 105t118 39q72 0 111.5 -37t39.5 -89q0 -45 -31.5 -80t-103.5 -83z" />
    <glyph glyph-name="three.dnom" horiz-adv-x="413" 
d="M312 213q29 -12 47 -38.5t18 -61.5q0 -52 -41.5 -88t-119.5 -36q-74 0 -122.5 35.5t-57.5 97.5h74q8 -38 35.5 -57.5t67.5 -19.5q43 0 66.5 19t23.5 52q0 31 -17 47.5t-46 16.5h-75v50h55q29 0 49.5 15t20.5 43q0 30 -22 48t-59 18q-79 0 -91 -78h-74q7 62 52 98t115 36
q71 0 111.5 -35t40.5 -86q0 -50 -51 -76z" />
    <glyph glyph-name="four.dnom" horiz-adv-x="433" 
d="M397 145v-60h-73v-85h-73v85h-215v60l196 253h92v-253h73zM99 145h152v199z" />
    <glyph glyph-name="five.dnom" horiz-adv-x="406" 
d="M224 264q63 0 104.5 -36.5t41.5 -97.5q0 -60 -42.5 -100.5t-117.5 -40.5q-71 0 -117 35.5t-57 95.5h74q7 -36 34 -55.5t64 -19.5q41 0 65 23.5t24 60.5t-23 61.5t-64 24.5q-53 0 -89 -44h-68l48 227h247v-58h-201l-24 -111q42 35 101 35z" />
    <glyph glyph-name="six.dnom" horiz-adv-x="395" 
d="M217 263q64 0 103 -39.5t39 -94.5q0 -58 -42.5 -99t-117.5 -41q-76 0 -119.5 43.5t-43.5 103.5q0 48 31 96t111 143l20 23h78l-127 -148q34 13 68 13zM197 47q42 0 66 23.5t24 59.5t-23.5 59t-66.5 23q-40 0 -64.5 -22.5t-24.5 -58.5t24 -60t65 -24z" />
    <glyph glyph-name="seven.dnom" horiz-adv-x="363" 
d="M36 398h291v-49l-172 -349h-69l168 338h-218v60z" />
    <glyph glyph-name="eight.dnom" horiz-adv-x="409" 
d="M297 210q33 -11 54.5 -38t21.5 -64q0 -53 -43 -86t-125 -33t-125.5 33t-43.5 86q0 37 21.5 64t54.5 38q-63 26 -63 87q0 50 42 81.5t114 31.5q71 0 113 -31.5t42 -81.5q0 -61 -63 -87zM205 354q-37 0 -59.5 -17.5t-22.5 -46.5q0 -28 22 -45t60 -17t59.5 17t21.5 45
q0 29 -22.5 46.5t-58.5 17.5zM205 45q45 0 70 18t25 50q0 31 -24 48.5t-71 17.5q-95 0 -95 -66q0 -32 25 -50t70 -18z" />
    <glyph glyph-name="nine.dnom" horiz-adv-x="395" 
d="M197 410q76 0 119 -43.5t43 -104.5q0 -34 -19.5 -73t-40.5 -65.5l-83 -100.5q-12 -15 -19 -23h-77l126 149q-30 -13 -68 -13q-64 0 -103 39t-39 94q0 58 43 99.5t118 41.5zM198 186q40 0 64.5 23t24.5 59q0 35 -24 59t-65 24q-42 0 -66 -24t-24 -59q0 -36 23.5 -59
t66.5 -23z" />
    <glyph glyph-name="zero.numr" horiz-adv-x="437" 
d="M219 290q-83 0 -133 54.5t-50 156.5q0 101 50 155.5t133 54.5t132.5 -54.5t49.5 -155.5q0 -102 -49.5 -156.5t-132.5 -54.5zM219 357q109 0 109 144t-109 144t-109 -144t109 -144z" />
    <glyph glyph-name="one.numr" horiz-adv-x="269" 
d="M195 700h38v-398h-73v321l-124 -44v67z" />
    <glyph glyph-name="two.numr" horiz-adv-x="416" 
d="M138 362h242v-60h-344v52l145 109q66 49 87 72.5t21 52.5q0 30 -21 48.5t-58 18.5q-83 0 -94 -87h-73q7 65 51 104t118 39q72 0 111.5 -36.5t39.5 -88.5q0 -45 -31.5 -80t-103.5 -83z" />
    <glyph glyph-name="three.numr" horiz-adv-x="413" 
d="M312 515q65 -29 65 -101q0 -52 -42 -88t-119 -36q-74 0 -122.5 35.5t-57.5 98.5h74q16 -78 103 -78q43 0 66.5 19.5t23.5 52.5q0 31 -17 47.5t-46 16.5h-75v50h55q29 0 49.5 15t20.5 43q0 30 -22 47.5t-59 17.5q-36 0 -60.5 -19t-30.5 -58h-74q7 62 52 97.5t115 35.5
q71 0 111.5 -34.5t40.5 -85.5q0 -50 -51 -76z" />
    <glyph glyph-name="four.numr" horiz-adv-x="433" 
d="M397 446v-60h-73v-84h-73v84h-215v60l196 254h92v-254h73zM99 446h152v200z" />
    <glyph glyph-name="five.numr" horiz-adv-x="406" 
d="M224 566q62 0 104 -36.5t42 -97.5t-42.5 -101.5t-117.5 -40.5q-70 0 -116.5 36t-57.5 95h74q7 -35 34 -55t64 -20q41 0 65 24t24 61t-23 61.5t-64 24.5q-53 0 -89 -44h-68l48 227h247v-58h-201l-24 -112q41 36 101 36z" />
    <glyph glyph-name="six.numr" horiz-adv-x="395" 
d="M217 564q64 0 103 -39t39 -94q0 -58 -43 -99.5t-117 -41.5q-76 0 -119.5 43.5t-43.5 104.5q0 47 30 94t107 139l25 29h78l-127 -149q30 13 68 13zM197 349q42 0 66 23.5t24 59.5t-23.5 59t-66.5 23q-40 0 -64.5 -23t-24.5 -59q0 -35 24 -59t65 -24z" />
    <glyph glyph-name="seven.numr" horiz-adv-x="363" 
d="M36 700h291v-49l-172 -349h-69l168 338h-218v60z" />
    <glyph glyph-name="eight.numr" horiz-adv-x="409" 
d="M297 511q33 -11 54.5 -38t21.5 -64q0 -53 -43 -86t-125 -33t-125.5 33t-43.5 86q0 37 21.5 64t54.5 38q-63 28 -63 88q0 50 42 81t114 31t113.5 -31t41.5 -81q0 -60 -63 -88zM205 655q-37 0 -59.5 -17t-22.5 -46t21.5 -45.5t60.5 -16.5q38 0 59.5 16.5t21.5 45.5
t-22.5 46t-58.5 17zM205 346q45 0 70 18.5t25 50.5q0 65 -95 65t-95 -65q0 -32 25 -50.5t70 -18.5z" />
    <glyph glyph-name="nine.numr" horiz-adv-x="395" 
d="M197 711q76 0 119 -43.5t43 -103.5q0 -49 -31.5 -97.5t-116.5 -148.5l-14 -16h-77l126 148q-34 -13 -68 -13q-64 0 -103 39t-39 94q0 58 43 99.5t118 41.5zM198 488q40 0 64.5 22.5t24.5 58.5t-24 60t-65 24q-42 0 -66 -24t-24 -60q0 -35 23.5 -58t66.5 -23z" />
    <glyph glyph-name="uni0308.case" 
d="M-369 924q23 0 38.5 -15t15.5 -37t-15.5 -37t-38.5 -15t-38.5 15t-15.5 37t15.5 37t38.5 15zM-143 924q23 0 39 -15t16 -37t-16 -37t-39 -15t-38.5 15t-15.5 37t15.5 37t38.5 15z" />
    <glyph glyph-name="uni0307.case" 
d="M-141 924q23 0 38.5 -15t15.5 -37t-15.5 -37t-38.5 -15t-38.5 15t-15.5 37t15.5 37t38.5 15z" />
    <glyph glyph-name="gravecomb.case" 
d="M-253 975l165 -165l-41 -40l-175 154z" />
    <glyph glyph-name="acutecomb.case" 
d="M-140 975l52 -51l-176 -154l-40 40z" />
    <glyph glyph-name="uni030B.case" 
d="M-262 983l54 -27l-114 -186l-41 21zM-142 983l54 -27l-113 -186l-42 21z" />
    <glyph glyph-name="uni0302.case" 
d="M-88 816l-47 -46l-118 122l-118 -122l-46 46l164 166z" />
    <glyph glyph-name="uni030C.case" 
d="M-88 936l-165 -164l-164 164l46 47l118 -122l118 122z" />
    <glyph glyph-name="uni0306.case" 
d="M-85 951v-18q0 -69 -46.5 -110.5t-114.5 -41.5t-114 41.5t-46 110.5v18h68v-15q0 -41 25 -65t67 -24t67.5 24t25.5 65v15h68z" />
    <glyph glyph-name="uni030A.case" 
d="M-209 1012q51 0 86.5 -35t34.5 -86q1 -50 -35 -85.5t-86 -35.5t-85.5 35.5t-35.5 85.5q0 51 35 86t86 35zM-209 961q-29 0 -49 -20t-20 -50t20 -50t49 -20t49 20t20 50t-20 50t-49 20z" />
    <glyph glyph-name="tildecomb.case" 
d="M-142 929h54q0 -144 -95 -144q-23 0 -40 10t-46 36q-2 2 -7 6.5t-7 6t-6 5.5t-6.5 5.5t-6.5 4.5t-6.5 4.5t-6 3t-7 2.5t-7 1.5t-7.5 0.5q-43 0 -43 -77h-54q0 143 95 143q23 0 40 -9.5t46 -35.5q2 -2 7 -6.5t7 -6t6 -5.5t6.5 -5.5t6.5 -4.5t6.5 -4.5t6 -3t7 -2.5t7 -1.5
t7.5 -0.5q43 0 43 77z" />
    <glyph glyph-name="uni0304.case" 
d="M-88 904v-62h-250v62h250z" />
    <glyph glyph-name="uni0327.case" 
d="M-187 -81q42 -6 70.5 -28t28.5 -62q0 -44 -37 -67t-100 -23q-41 0 -59 4v46q22 -5 51 -5q79 0 79 49q0 50 -101 56l47 111h60z" />
    <glyph glyph-name="uni0328.case" 
d="M-88 -257q-18 -4 -58 -4q-53 0 -85.5 23.5t-32.5 68.5q0 28 17.5 57.5t36.5 49t64 62.5h58q-64 -67 -87 -98.5t-23 -60.5q0 -52 64 -52q26 0 46 5v-51z" />
    <glyph glyph-name="newGlyph" horiz-adv-x="600" 
 />
    <glyph glyph-name="Bitcoinsymbol" horiz-adv-x="656" 
d="M612 194q0 -74 -39.5 -122.5t-115.5 -64.5v-132h-75v125h-138v-125h-75v125h-81v700h81v124h75v-124h133h5v124h75v-133q133 -31 133 -169q0 -111 -100 -152q122 -36 122 -176zM506 510q0 55 -32 83t-106 28h-197v-223h194q76 0 108.5 28.5t32.5 83.5zM381 79
q147 0 147 121q0 59 -34.5 90.5t-113.5 31.5h-209v-243h210z" />
    </font>
</defs>
</svg>
